<svg width="20" height="20" viewBox="0 0 20 20" fill="none" xmlns="http://www.w3.org/2000/svg">
<g id="Frame">
<g id="Layer 2">
<path id="Vector" d="M13.75 9.99989C13.7505 10.0821 13.7347 10.1637 13.7036 10.2398C13.6725 10.316 13.6267 10.3852 13.5687 10.4436L7.31874 16.6936C7.20105 16.8113 7.04143 16.8774 6.87499 16.8774C6.70855 16.8774 6.54893 16.8113 6.43124 16.6936C6.31355 16.5759 6.24744 16.4163 6.24744 16.2499C6.24744 16.0834 6.31355 15.9238 6.43124 15.8061L12.2437 9.99989L6.43125 4.19364C6.31356 4.07594 6.24744 3.91632 6.24744 3.74989C6.24744 3.58345 6.31356 3.42383 6.43125 3.30614C6.54894 3.18845 6.70856 3.12233 6.875 3.12233C7.04143 3.12233 7.20106 3.18845 7.31875 3.30614L13.5687 9.55614C13.6267 9.61454 13.6725 9.6838 13.7036 9.75994C13.7347 9.83609 13.7505 9.91763 13.75 9.99989Z" fill="white"/>
</g>
</g>
</svg>
