<svg xmlns="http://www.w3.org/2000/svg" width="15" height="15" viewBox="0 0 15 15" fill="none">
  <path d="M7.49999 10.3125C7.4383 10.3128 7.37715 10.301 7.32004 10.2777C7.26293 10.2543 7.21098 10.22 7.16718 10.1765L2.47968 5.48903C2.39142 5.40076 2.34183 5.28104 2.34183 5.15621C2.34183 5.03139 2.39142 4.91167 2.47968 4.8234C2.56795 4.73513 2.68767 4.68555 2.8125 4.68555C2.93732 4.68555 3.05704 4.73513 3.14531 4.8234L7.49999 9.18278L11.8547 4.8234C11.943 4.73513 12.0627 4.68555 12.1875 4.68555C12.3123 4.68555 12.432 4.73513 12.5203 4.8234C12.6086 4.91167 12.6582 5.03139 12.6582 5.15621C12.6582 5.28104 12.6086 5.40076 12.5203 5.48903L7.83281 10.1765C7.78901 10.22 7.73706 10.2543 7.67995 10.2777C7.62284 10.301 7.56169 10.3128 7.49999 10.3125Z" fill="#151616"/>
</svg>