<svg xmlns="http://www.w3.org/2000/svg" width="20" height="20" viewBox="0 0 20 20" fill="none">
  <g clip-path="url(#clip0_112_806)">
    <path d="M19.8789 3.92188C19.7617 3.76172 19.5742 3.66406 19.375 3.66406H5.4375L4.55859 0.960938C4.47656 0.703125 4.23438 0.527344 3.96484 0.527344H0.625C0.28125 0.527344 0 0.808594 0 1.15234C0 1.49609 0.28125 1.77734 0.625 1.77734H3.51172L4.39062 4.48047L7.14062 12.9375C7.22266 13.1953 7.46484 13.3711 7.73438 13.3711H16.6289H18.043C18.1875 13.3711 18.4023 13.6367 18.4023 14.0391C18.4023 14.4414 18.1836 14.707 18.0391 14.707L7.73047 14.7734C7.38672 14.7773 7.10547 15.0586 7.10938 15.4023C7.11328 15.7461 7.39062 16.0234 7.73438 16.0234H7.73828L18.0469 15.957C18.5 15.9531 18.9336 15.7227 19.2344 15.3281C19.5039 14.9766 19.6523 14.5156 19.6523 14.0352C19.6523 12.9766 18.9297 12.1172 18.043 12.1172H17.4883L19.9688 4.47656C20.0312 4.28906 20 4.08203 19.8789 3.92188ZM16.1719 12.1211H8.1875L5.84375 4.91406H18.5156L16.1719 12.1211Z" fill="white"/>
    <path d="M9.4375 16.2031C8.53516 16.2031 7.80078 16.9375 7.80078 17.8398C7.80078 18.7422 8.53516 19.4766 9.4375 19.4766C10.3398 19.4766 11.0742 18.7422 11.0742 17.8398C11.0742 16.9375 10.3398 16.2031 9.4375 16.2031ZM9.4375 18.2227C9.22656 18.2227 9.05078 18.0508 9.05078 17.8398C9.05078 17.6289 9.22266 17.4531 9.4375 17.4531C9.64844 17.4531 9.82422 17.625 9.82422 17.8398C9.82422 18.0547 9.64844 18.2227 9.4375 18.2227Z" fill="white"/>
    <path d="M17.3203 16.2031C16.418 16.2031 15.6836 16.9375 15.6836 17.8398C15.6836 18.7422 16.418 19.4766 17.3203 19.4766C18.2227 19.4766 18.957 18.7422 18.957 17.8398C18.957 16.9375 18.2227 16.2031 17.3203 16.2031ZM17.3203 18.2227C17.1094 18.2227 16.9336 18.0508 16.9336 17.8398C16.9336 17.6289 17.1055 17.4531 17.3203 17.4531C17.5312 17.4531 17.7031 17.625 17.7031 17.8398C17.7031 18.0547 17.5352 18.2227 17.3203 18.2227Z" fill="white"/>
  </g>
  <defs>
    <clipPath id="clip0_112_806">
      <rect width="20" height="20" fill="white"/>
    </clipPath>
  </defs>
</svg>