<svg xmlns="http://www.w3.org/2000/svg" width="20" height="20" viewBox="0 0 20 20" fill="none">
  <g clip-path="url(#clip0_152_723)">
    <path d="M18.75 9.375C18.5843 9.375 18.4253 9.44085 18.3081 9.55806C18.1909 9.67527 18.125 9.83424 18.125 10C18.131 11.8543 17.5045 13.6552 16.349 15.1055C15.1936 16.5558 13.5781 17.5687 11.7694 17.9772C9.96064 18.3857 8.06667 18.1652 6.40009 17.3522C4.7335 16.5393 3.39392 15.1824 2.60242 13.5055C1.81093 11.8286 1.61484 9.93193 2.04652 8.12858C2.47819 6.32522 3.51184 4.72295 4.97684 3.5862C6.44185 2.44946 8.25065 1.84619 10.1047 1.87597C11.9588 1.90575 13.7473 2.56679 15.175 3.75H13.75C13.5843 3.75 13.4253 3.81585 13.3081 3.93306C13.1909 4.05027 13.125 4.20924 13.125 4.375C13.125 4.54076 13.1909 4.69973 13.3081 4.81694C13.4253 4.93415 13.5843 5 13.75 5H16.875C17.0408 5 17.1998 4.93415 17.317 4.81694C17.4342 4.69973 17.5 4.54076 17.5 4.375V1.25C17.5 1.08424 17.4342 0.925268 17.317 0.808058C17.1998 0.690848 17.0408 0.625 16.875 0.625C16.7093 0.625 16.5503 0.690848 16.4331 0.808058C16.3159 0.925268 16.25 1.08424 16.25 1.25V3.02688C14.6509 1.59796 12.6098 0.761163 10.4679 0.656318C8.32593 0.551472 6.21288 1.18493 4.48187 2.45084C2.75085 3.71675 1.50674 5.5384 0.957443 7.61137C0.408149 9.68435 0.586952 11.883 1.46397 13.84C2.34099 15.797 3.86309 17.3937 5.7759 18.3633C7.68872 19.3329 9.87635 19.6166 11.9732 19.167C14.0701 18.7175 15.9491 17.5619 17.2964 15.8934C18.6436 14.2249 19.3773 12.1445 19.375 10C19.375 9.83424 19.3092 9.67527 19.192 9.55806C19.0748 9.44085 18.9158 9.375 18.75 9.375Z" fill="white"/>
  </g>
  <defs>
    <clipPath id="clip0_152_723">
      <rect width="20" height="20" fill="white"/>
    </clipPath>
  </defs>
</svg>