<svg xmlns="http://www.w3.org/2000/svg" width="170" height="43" viewBox="0 0 170 43" fill="none">
  <g clip-path="url(#clip0_112_832)">
    <path fill-rule="evenodd" clip-rule="evenodd" d="M51.825 3.79986C50.3102 3.79986 48.7952 3.79986 47.2804 3.79986C43.6698 3.79986 40.386 5.26815 38.004 7.63389C35.622 9.99963 34.1436 14.1903 34.1436 17.7762V24.314L34.162 42.7805L34.1515 42.7968C31.8555 42.7795 26.8478 42.9511 24.5388 42.815C14.3209 42.0848 8.08824 38.3068 4.20455 31.8436C0.801766 26.1806 -0.318511 19.1008 0.0751658 11.1014C11.6471 9.38038 18.6684 12.7178 21.9862 16.5005C26.8337 22.0272 27.2126 28.0036 26.5188 36.7152L22.7103 36.7184C22.9296 30.2261 23.3665 25.7484 20.6539 21.2592C17.0071 15.2242 9.85422 13.9165 3.88346 14.3481C3.88346 20.5562 5.15344 27.2269 8.52252 31.5655C11.8379 35.8349 17.186 38.7731 24.5388 39.0327L30.1162 39.022L30.1092 31.7812H30.1015V24.3138V16.8467C30.3595 9.41887 35.3043 2.36503 42.7909 0.742776C46.899 -0.147424 51.1449 -0.183817 55.3491 0.349313C55.5217 4.47043 55.6945 5.20566 55.8671 9.32671C55.8671 14.5726 53.9163 22.7676 50.4375 26.2227C47.1745 29.4634 42.5649 31.515 37.6468 31.757L37.6437 27.9746C41.4095 27.7833 44.7394 26.4709 47.2707 23.9569C50.0187 21.2277 51.8252 14.4602 51.8252 10.3225C51.8252 7.35158 51.825 6.77075 51.825 3.79986Z" fill="#1C5F43"/>
    <path fill-rule="evenodd" clip-rule="evenodd" d="M66.8232 17.9414H74.1893L70.5415 10.2311L66.8232 17.9414ZM59.2883 25.5049L68.7748 6.55957H72.5638L82.2189 25.5049H77.8156L75.7931 21.356H65.127L63.1699 25.5049H59.2883Z" fill="#151616"/>
    <path fill-rule="evenodd" clip-rule="evenodd" d="M98.9313 9.93745H86.7791V21.9434H98.9313V17.7212H92.5851V14.4902H102.723V21.0256C102.723 22.739 102.442 23.9139 101.875 24.5565C101.275 25.1868 100.173 25.5049 98.5693 25.5049H87.0385C85.4344 25.5049 84.3326 25.1868 83.7277 24.5565C83.1713 23.9078 82.8906 22.7329 82.8906 21.0256V11.0389C82.8906 9.33776 83.1713 8.16284 83.7277 7.52027C84.3271 6.87771 85.4289 6.55957 87.0385 6.55957H98.5693C100.179 6.55957 101.27 6.86545 101.842 7.48356C102.431 8.09551 102.723 9.22147 102.723 10.8614V11.302L98.9313 12.073V9.93745Z" fill="#151616"/>
    <path fill-rule="evenodd" clip-rule="evenodd" d="M166.741 9.86397H155.817V13.9393H166.224C167.845 13.9393 168.955 14.2576 169.558 14.8879C170.113 15.5366 170.393 16.7115 170.393 18.4127V21.0195C170.393 22.7329 170.113 23.9078 169.558 24.5565C168.955 25.1868 167.845 25.5049 166.224 25.5049H155.914C154.282 25.5049 153.184 25.1868 152.613 24.5565C152.036 23.9262 151.745 22.7512 151.745 21.0195V20.5116L155.171 19.7037V21.9434H166.967V17.611H156.561C154.95 17.611 153.862 17.2928 153.291 16.6625C152.715 16.0322 152.424 14.8573 152.424 13.1378V11.0389C152.424 9.31941 152.715 8.14448 153.291 7.52027C153.857 6.87771 154.945 6.55957 156.561 6.55957H166.03C167.603 6.55957 168.691 6.86545 169.294 7.48356C169.876 8.09551 170.167 9.17244 170.167 10.7084V11.1061L166.741 12.0302V9.86397Z" fill="#151616"/>
    <path fill-rule="evenodd" clip-rule="evenodd" d="M119.124 9.82714H110.435C110.435 15.1491 110.435 20.1333 110.435 25.5049H106.637V6.55933H120.829C122.133 6.55933 123.104 6.84094 123.731 7.41002C124.305 7.9913 124.595 8.9337 124.595 10.231V14.6798C124.595 15.9526 124.305 16.8828 123.731 17.4641C123.125 18.0516 122.154 18.3453 120.829 18.3453H118.679L126.338 25.5049H120.797L113.972 18.3453V15.1142H119.124C119.799 15.1142 120.261 15.004 120.508 14.7838C120.744 14.5512 120.862 14.1596 120.862 13.609V11.3325C120.862 10.7695 120.744 10.3779 120.508 10.1575C120.261 9.93734 119.799 9.82714 119.124 9.82714Z" fill="#151616"/>
    <path fill-rule="evenodd" clip-rule="evenodd" d="M127.943 11.0389C127.943 9.33776 128.222 8.16284 128.775 7.52027C129.371 6.87771 130.466 6.55957 132.065 6.55957H144.305C145.921 6.55957 147.005 6.87771 147.553 7.52027C148.138 8.14448 148.428 9.31941 148.428 11.0389V21.0256C148.428 22.7512 148.138 23.9262 147.553 24.5565C147 25.1868 145.915 25.5049 144.305 25.5049H132.065C130.471 25.5049 129.376 25.1868 128.775 24.5565C128.222 23.9078 127.943 22.7329 127.943 21.0256V11.0389ZM131.808 21.9434H144.563V9.93745H131.808V21.9434Z" fill="#151616"/>
    <path fill-rule="evenodd" clip-rule="evenodd" d="M64.0522 34.1781V31.9078C64.0522 31.7573 64.0076 31.6422 63.9184 31.5626C63.8294 31.4829 63.7224 31.4431 63.5977 31.4431C63.4728 31.4431 63.366 31.4852 63.2769 31.5693C63.1877 31.6534 63.1432 31.7663 63.1432 31.9078V34.1781H62.6886C62.5373 34.1781 62.4214 34.2223 62.3411 34.3107C62.261 34.3993 62.2208 34.5055 62.2208 34.6294C62.2208 34.7533 62.2632 34.8595 62.3478 34.9481C62.4325 35.0365 62.5461 35.0808 62.6886 35.0808H63.1432V40.0726C63.1432 40.2142 63.1877 40.3249 63.2769 40.4044C63.366 40.4842 63.4728 40.524 63.5977 40.524C63.7313 40.524 63.8405 40.4864 63.9251 40.4111C64.0098 40.3358 64.0522 40.2232 64.0522 40.0726V35.0808H65.429C65.5716 35.0808 65.683 35.0343 65.7633 34.9414C65.8434 34.8485 65.8834 34.7445 65.8834 34.6294C65.8834 34.4967 65.8456 34.3881 65.7699 34.3041C65.6942 34.22 65.5805 34.1781 65.429 34.1781H64.0522ZM73.9116 35.5321C73.9116 35.3463 73.876 35.1715 73.8046 35.0079C73.7334 34.844 73.6353 34.7002 73.5106 34.5763C73.3859 34.4524 73.2389 34.3551 73.0696 34.2843C72.9002 34.2134 72.7219 34.1781 72.5348 34.1781H70.7168C70.405 34.1781 70.2489 34.3286 70.2489 34.6294V40.0726C70.2489 40.2142 70.2957 40.3249 70.3894 40.4044C70.4829 40.4842 70.5921 40.524 70.7168 40.524C70.8506 40.524 70.9597 40.4864 71.0443 40.4111C71.129 40.3358 71.1714 40.2232 71.1714 40.0726V35.0808H72.5348C72.6686 35.0808 72.7777 35.125 72.8624 35.2136C72.947 35.302 72.9893 35.4082 72.9893 35.5321C72.9893 35.6738 73.0361 35.7844 73.1297 35.8641C73.2233 35.9437 73.3324 35.9837 73.4571 35.9837C73.5909 35.9837 73.7001 35.946 73.7847 35.8707C73.8693 35.7955 73.9116 35.6826 73.9116 35.5321ZM81.9398 38.7051C81.9398 38.9618 81.8507 39.1788 81.6726 39.3558C81.4942 39.5327 81.2759 39.6213 81.0174 39.6213H80.1085C79.85 39.6213 79.6339 39.5327 79.4601 39.3558C79.2864 39.1788 79.1996 38.9618 79.1996 38.7051V35.9837C79.1996 35.7357 79.2864 35.5233 79.4601 35.3463C79.6339 35.1694 79.85 35.0808 80.1085 35.0808H81.9398V38.7051ZM82.381 39.9266C82.5681 40.1656 82.8177 40.3513 83.1295 40.4842C83.1918 40.5195 83.2544 40.5373 83.3167 40.5373C83.4503 40.5373 83.5594 40.4885 83.6441 40.3914C83.7288 40.2939 83.7712 40.1832 83.7712 40.0593C83.7712 39.8735 83.6731 39.7407 83.4772 39.6611C83.2899 39.5725 83.1385 39.442 83.0225 39.2693C82.9067 39.0968 82.8489 38.9087 82.8489 38.7051V34.6294C82.8489 34.3286 82.6973 34.1781 82.3944 34.1781H80.1085C79.6006 34.1781 79.1682 34.3551 78.8118 34.709C78.4554 35.0631 78.2771 35.488 78.2771 35.9837V38.7051C78.2771 39.2186 78.4554 39.6523 78.8118 40.0062C79.1682 40.3513 79.6006 40.524 80.1085 40.524H81.0174C81.2848 40.524 81.5388 40.4687 81.7795 40.358C82.0201 40.2475 82.2206 40.1036 82.381 39.9266ZM90.8768 35.0808V39.6213H89.0456C88.7871 39.6213 88.571 39.5327 88.3972 39.3558C88.2235 39.1788 88.1367 38.9618 88.1367 38.7051V35.9837C88.1367 35.7357 88.2235 35.5233 88.3972 35.3463C88.571 35.1694 88.7871 35.0808 89.0456 35.0808H90.8768ZM90.8768 34.1781H89.0456C88.5376 34.1781 88.1053 34.3551 87.7489 34.709C87.3925 35.0631 87.2142 35.488 87.2142 35.9837V38.7051C87.2142 39.2186 87.3925 39.6523 87.7489 40.0062C88.1053 40.3513 88.5376 40.524 89.0456 40.524H91.3315C91.6344 40.524 91.7859 40.3735 91.7859 40.0726V31.9078C91.7859 31.7573 91.7413 31.6422 91.6522 31.5626C91.5632 31.4829 91.4562 31.4431 91.3315 31.4431C91.2066 31.4431 91.0996 31.4852 91.0106 31.5693C90.9214 31.6534 90.8768 31.7663 90.8768 31.9078V34.1781ZM97.0737 40.0726V34.6294C97.0737 34.4789 97.0268 34.366 96.9332 34.2909C96.8397 34.2157 96.7349 34.1781 96.6191 34.1781C96.4855 34.1781 96.374 34.2179 96.285 34.2974C96.1958 34.3772 96.1513 34.4877 96.1513 34.6294V40.0726C96.1513 40.2142 96.198 40.3249 96.2917 40.4044C96.3853 40.4842 96.4944 40.524 96.6191 40.524C96.7529 40.524 96.862 40.4864 96.9467 40.4111C97.0313 40.3358 97.0737 40.2232 97.0737 40.0726ZM96.1513 31.9078C96.1513 32.0316 96.1958 32.1379 96.285 32.2265C96.374 32.3148 96.4855 32.3592 96.6191 32.3592C96.744 32.3592 96.8509 32.3148 96.9399 32.2265C97.0292 32.1379 97.0737 32.0316 97.0737 31.9078C97.0737 31.7751 97.0292 31.6644 96.9399 31.576C96.8509 31.4874 96.744 31.4431 96.6191 31.4431C96.4855 31.4431 96.374 31.4874 96.285 31.576C96.1958 31.6644 96.1513 31.7751 96.1513 31.9078ZM106.011 40.0726V35.9837C106.011 35.479 105.833 35.0498 105.476 34.6959C105.129 34.3506 104.696 34.1781 104.179 34.1781H101.907C101.595 34.1781 101.439 34.3286 101.439 34.6294V40.0726C101.439 40.2142 101.486 40.3249 101.58 40.4044C101.673 40.4842 101.782 40.524 101.907 40.524C102.041 40.524 102.15 40.4864 102.235 40.4111C102.319 40.3358 102.362 40.2232 102.362 40.0726V35.0808H104.179C104.438 35.0808 104.656 35.1694 104.835 35.3463C105.013 35.5233 105.102 35.7357 105.102 35.9837V40.0726C105.102 40.2142 105.146 40.3249 105.235 40.4044C105.325 40.4842 105.431 40.524 105.556 40.524C105.69 40.524 105.799 40.4864 105.884 40.4111C105.968 40.3358 106.011 40.2232 106.011 40.0726ZM114.039 39.6213H112.208C111.949 39.6213 111.733 39.5327 111.559 39.3558C111.385 39.1788 111.299 38.9618 111.299 38.7051V35.9837C111.299 35.7357 111.385 35.5233 111.559 35.3463C111.733 35.1694 111.949 35.0808 112.208 35.0808H114.039V39.6213ZM114.039 40.524V41.4267C114.039 41.6835 113.95 41.9002 113.772 42.0774C113.593 42.2543 113.375 42.3429 113.116 42.3429H111.299C111.147 42.3429 111.033 42.3871 110.958 42.4756C110.882 42.5642 110.844 42.6703 110.844 42.7943C110.844 42.9182 110.884 43.0244 110.964 43.1128C111.044 43.2014 111.156 43.2456 111.299 43.2456H113.116C113.633 43.2456 114.07 43.0687 114.427 42.7145C114.774 42.3694 114.948 41.9402 114.948 41.4267V34.6294C114.948 34.3286 114.796 34.1781 114.493 34.1781H112.208C111.7 34.1781 111.267 34.3551 110.911 34.709C110.554 35.0631 110.376 35.488 110.376 35.9837V38.7051C110.376 39.2186 110.554 39.6523 110.911 40.0062C111.267 40.3513 111.7 40.524 112.208 40.524H114.039ZM128.061 34.1781V31.9078C128.061 31.7573 128.014 31.6422 127.921 31.5626C127.827 31.4829 127.723 31.4431 127.607 31.4431C127.473 31.4431 127.362 31.4852 127.273 31.5693C127.183 31.6534 127.139 31.7663 127.139 31.9078V40.0726C127.139 40.2142 127.186 40.3249 127.279 40.4044C127.373 40.4842 127.482 40.524 127.607 40.524C127.741 40.524 127.85 40.4864 127.934 40.4111C128.019 40.3358 128.061 40.2232 128.061 40.0726V35.0808H129.879C130.138 35.0808 130.356 35.1694 130.534 35.3463C130.713 35.5233 130.802 35.7357 130.802 35.9837V40.0726C130.802 40.2142 130.846 40.3249 130.935 40.4044C131.024 40.4842 131.131 40.524 131.256 40.524C131.39 40.524 131.499 40.4864 131.584 40.4111C131.668 40.3358 131.711 40.2232 131.711 40.0726V35.9837C131.711 35.479 131.532 35.0498 131.176 34.6959C130.828 34.3506 130.396 34.1781 129.879 34.1781H128.061ZM140.648 38.5326V36.1694C140.648 35.6207 140.452 35.1515 140.059 34.7621C139.667 34.3727 139.195 34.1781 138.643 34.1781H138.094C137.551 34.1781 137.074 34.3727 136.664 34.7621C136.272 35.1515 136.076 35.6207 136.076 36.1694V38.5326C136.076 39.0902 136.272 39.5637 136.664 39.9531C137.056 40.3337 137.533 40.524 138.094 40.524H138.643C139.204 40.524 139.676 40.3337 140.059 39.9531C140.452 39.5637 140.648 39.0902 140.648 38.5326ZM139.739 38.5326C139.739 38.8334 139.632 39.0902 139.418 39.3026C139.204 39.5151 138.946 39.6213 138.643 39.6213H138.094C137.792 39.6213 137.533 39.5151 137.319 39.3026C137.105 39.0902 136.998 38.8334 136.998 38.5326V36.1694C136.998 35.8685 137.105 35.6119 137.319 35.3994C137.533 35.187 137.792 35.0808 138.094 35.0808H138.643C138.946 35.0808 139.204 35.187 139.418 35.3994C139.632 35.6119 139.739 35.8685 139.739 36.1694V38.5326ZM149.585 40.0726V34.6294C149.585 34.4789 149.54 34.366 149.451 34.2909C149.362 34.2157 149.255 34.1781 149.13 34.1781C149.005 34.1781 148.898 34.2179 148.809 34.2974C148.72 34.3772 148.676 34.4877 148.676 34.6294V39.6213H146.844C146.586 39.6213 146.37 39.5327 146.196 39.3558C146.022 39.1788 145.936 38.9618 145.936 38.7051V34.6294C145.936 34.4789 145.889 34.366 145.795 34.2909C145.701 34.2157 145.597 34.1781 145.481 34.1781C145.347 34.1781 145.236 34.2179 145.147 34.2974C145.058 34.3772 145.013 34.4877 145.013 34.6294V38.7051C145.013 39.2186 145.191 39.6523 145.548 40.0062C145.904 40.3513 146.337 40.524 146.844 40.524H149.13C149.433 40.524 149.585 40.3735 149.585 40.0726ZM158.241 34.6692C158.41 34.7578 158.495 34.8905 158.495 35.0674C158.495 35.1915 158.453 35.302 158.368 35.3994C158.283 35.4968 158.179 35.5454 158.054 35.5454C157.983 35.5454 157.911 35.5278 157.84 35.4923C157.314 35.2268 156.797 35.0941 156.289 35.0941C155.782 35.0941 155.354 35.2136 155.006 35.4526C154.917 35.5145 154.873 35.603 154.873 35.7181C154.873 35.8331 154.917 35.9172 155.006 35.9703L157.92 37.8688C158.116 37.9927 158.259 38.152 158.348 38.3466C158.437 38.5415 158.482 38.7406 158.482 38.9442C158.482 39.1567 158.435 39.3558 158.341 39.5415C158.248 39.7275 158.112 39.8779 157.934 39.9929C157.408 40.3382 156.811 40.5107 156.142 40.5107C155.483 40.5107 154.855 40.347 154.258 40.0195C154.088 39.9309 154.004 39.8026 154.004 39.6345C154.004 39.5106 154.048 39.4 154.137 39.3026C154.226 39.2052 154.333 39.1567 154.458 39.1567C154.529 39.1567 154.61 39.1788 154.699 39.2229C155.171 39.4796 155.652 39.608 156.142 39.608C156.624 39.608 157.047 39.4841 157.412 39.2362C157.519 39.1742 157.573 39.0726 157.573 38.9309C157.573 38.7982 157.519 38.6962 157.412 38.6255L154.498 36.727C154.329 36.612 154.204 36.4638 154.124 36.2823C154.044 36.1008 154.004 35.9084 154.004 35.7048C154.004 35.51 154.048 35.3198 154.137 35.1339C154.226 34.9481 154.347 34.8064 154.498 34.709C154.988 34.3638 155.585 34.1914 156.289 34.1914C156.949 34.1914 157.6 34.3506 158.241 34.6692ZM163.81 36.8997V35.9837C163.81 35.7357 163.896 35.5233 164.07 35.3463C164.244 35.1694 164.46 35.0808 164.719 35.0808H165.627C165.886 35.0808 166.104 35.1694 166.283 35.3463C166.461 35.5233 166.55 35.7357 166.55 35.9837V36.8997H163.81ZM163.81 37.8024H167.004C167.307 37.8024 167.459 37.6519 167.459 37.351V35.9837C167.459 35.479 167.281 35.0498 166.924 34.6959C166.577 34.3506 166.145 34.1781 165.627 34.1781H164.719C164.211 34.1781 163.778 34.3551 163.422 34.709C163.066 35.0543 162.887 35.479 162.887 35.9837V38.7051C162.887 39.2186 163.066 39.6523 163.422 40.0062C163.778 40.3513 164.211 40.524 164.719 40.524H167.004C167.147 40.524 167.258 40.4775 167.339 40.3847C167.419 40.2918 167.459 40.1877 167.459 40.0726C167.459 39.9398 167.421 39.8314 167.345 39.7473C167.27 39.6632 167.156 39.6213 167.004 39.6213H164.719C164.46 39.6213 164.244 39.5327 164.07 39.3558C163.896 39.1788 163.81 38.9618 163.81 38.7051V37.8024Z" fill="#151616"/>
  </g>
  <defs>
    <clipPath id="clip0_112_832">
      <rect width="170" height="43" fill="white"/>
    </clipPath>
  </defs>
</svg>