<svg xmlns="http://www.w3.org/2000/svg" width="170" height="43" viewBox="0 0 170 43" fill="none">
<g clip-path="url(#clip0_183_23)">
<path fill-rule="evenodd" clip-rule="evenodd" d="M51.825 3.79986C50.3102 3.79986 48.7952 3.79986 47.2804 3.79986C43.6698 3.79986 40.386 5.26815 38.004 7.63389C35.622 9.99963 34.1436 14.1903 34.1436 17.7762V24.314L34.162 42.7805L34.1515 42.7968C31.8555 42.7795 26.8478 42.9511 24.5388 42.815C14.3209 42.0848 8.08824 38.3068 4.20455 31.8436C0.801766 26.1806 -0.318511 19.1008 0.0751658 11.1014C11.6471 9.38038 18.6684 12.7178 21.9862 16.5005C26.8337 22.0272 27.2126 28.0036 26.5188 36.7152L22.7103 36.7184C22.9296 30.2261 23.3665 25.7484 20.6539 21.2592C17.0071 15.2242 9.85422 13.9165 3.88346 14.3481C3.88346 20.5562 5.15344 27.2269 8.52252 31.5655C11.8379 35.8349 17.186 38.7731 24.5388 39.0327L30.1162 39.022L30.1092 31.7812H30.1015V24.3138V16.8467C30.3595 9.41887 35.3043 2.36503 42.7909 0.742776C46.899 -0.147424 51.1449 -0.183817 55.3491 0.349313C55.5217 4.47043 55.6945 5.20566 55.8671 9.32671C55.8671 14.5726 53.9163 22.7676 50.4375 26.2227C47.1745 29.4634 42.5649 31.515 37.6468 31.757L37.6437 27.9746C41.4095 27.7833 44.7394 26.4709 47.2707 23.9569C50.0187 21.2277 51.8252 14.4602 51.8252 10.3225C51.8252 7.35158 51.825 6.77075 51.825 3.79986Z" fill="#1C5F43"/>
<path fill-rule="evenodd" clip-rule="evenodd" d="M66.823 17.9413H74.1892L70.5413 10.231L66.823 17.9413ZM59.2881 25.5049L68.7746 6.55951H72.5636L82.2187 25.5049H77.8154L75.7929 21.3559H65.1268L63.1697 25.5049H59.2881Z" fill="white"/>
<path fill-rule="evenodd" clip-rule="evenodd" d="M98.9313 9.93727H86.7792V21.9432H98.9313V17.721H92.5852V14.49H102.723V21.0254C102.723 22.7388 102.442 23.9137 101.875 24.5563C101.275 25.1866 100.173 25.5047 98.5693 25.5047H87.0386C85.4344 25.5047 84.3326 25.1866 83.7277 24.5563C83.1714 23.9076 82.8906 22.7327 82.8906 21.0254V11.0387C82.8906 9.33758 83.1714 8.16265 83.7277 7.52009C84.3272 6.87753 85.429 6.55939 87.0386 6.55939H98.5693C100.179 6.55939 101.27 6.86527 101.842 7.48338C102.431 8.09533 102.723 9.22129 102.723 10.8612V11.3018L98.9313 12.0728V9.93727Z" fill="white"/>
<path fill-rule="evenodd" clip-rule="evenodd" d="M166.741 9.86379H155.817V13.9391H166.224C167.845 13.9391 168.954 14.2574 169.558 14.8877C170.113 15.5364 170.393 16.7113 170.393 18.4125V21.0193C170.393 22.7327 170.113 23.9076 169.558 24.5563C168.954 25.1866 167.845 25.5047 166.224 25.5047H155.914C154.282 25.5047 153.183 25.1866 152.612 24.5563C152.036 23.926 151.745 22.7511 151.745 21.0193V20.5114L155.171 19.7036V21.9432H166.967V17.6108H156.561C154.95 17.6108 153.862 17.2927 153.291 16.6624C152.715 16.0321 152.424 14.8571 152.424 13.1376V11.0387C152.424 9.31922 152.715 8.1443 153.291 7.52009C153.856 6.87753 154.945 6.55939 156.561 6.55939H166.03C167.603 6.55939 168.691 6.86527 169.294 7.48338C169.875 8.09533 170.166 9.17225 170.166 10.7082V11.1059L166.741 12.03V9.86379Z" fill="white"/>
<path fill-rule="evenodd" clip-rule="evenodd" d="M119.124 9.82702H110.434C110.434 15.149 110.434 20.1332 110.434 25.5047H106.637V6.5592H120.829C122.133 6.5592 123.103 6.84082 123.731 7.4099C124.305 7.99117 124.595 8.93358 124.595 10.2308V14.6797C124.595 15.9525 124.305 16.8826 123.731 17.464C123.125 18.0515 122.154 18.3452 120.829 18.3452H118.678L126.338 25.5047H120.797L113.972 18.3452V15.1141H119.124C119.799 15.1141 120.261 15.0039 120.507 14.7837C120.743 14.5511 120.862 14.1594 120.862 13.6089V11.3324C120.862 10.7694 120.743 10.3778 120.507 10.1574C120.261 9.93722 119.799 9.82702 119.124 9.82702Z" fill="white"/>
<path fill-rule="evenodd" clip-rule="evenodd" d="M127.942 11.0387C127.942 9.33758 128.222 8.16265 128.774 7.52009C129.37 6.87753 130.466 6.55939 132.065 6.55939H144.305C145.921 6.55939 147.005 6.87753 147.553 7.52009C148.138 8.1443 148.428 9.31922 148.428 11.0387V21.0254C148.428 22.7511 148.138 23.926 147.553 24.5563C147 25.1866 145.915 25.5047 144.305 25.5047H132.065C130.471 25.5047 129.376 25.1866 128.774 24.5563C128.222 23.9076 127.942 22.7327 127.942 21.0254V11.0387ZM131.808 21.9432H144.562V9.93727H131.808V21.9432Z" fill="white"/>
<path fill-rule="evenodd" clip-rule="evenodd" d="M64.0521 34.1781V31.9078C64.0521 31.7573 64.0075 31.6422 63.9183 31.5626C63.8294 31.4829 63.7224 31.4431 63.5977 31.4431C63.4728 31.4431 63.366 31.4852 63.2768 31.5693C63.1876 31.6534 63.1432 31.7663 63.1432 31.9078V34.1781H62.6886C62.5372 34.1781 62.4214 34.2223 62.3411 34.3107C62.2609 34.3993 62.2207 34.5055 62.2207 34.6294C62.2207 34.7533 62.2631 34.8595 62.3478 34.9481C62.4324 35.0365 62.5461 35.0808 62.6886 35.0808H63.1432V40.0726C63.1432 40.2142 63.1876 40.3249 63.2768 40.4044C63.366 40.4842 63.4728 40.524 63.5977 40.524C63.7313 40.524 63.8404 40.4864 63.925 40.4111C64.0097 40.3358 64.0521 40.2232 64.0521 40.0726V35.0808H65.4289C65.5716 35.0808 65.6829 35.0343 65.7632 34.9414C65.8433 34.8485 65.8834 34.7445 65.8834 34.6294C65.8834 34.4967 65.8455 34.3881 65.7699 34.3041C65.6942 34.22 65.5804 34.1781 65.4289 34.1781H64.0521ZM73.9115 35.5321C73.9115 35.3463 73.876 35.1715 73.8045 35.0079C73.7333 34.844 73.6353 34.7002 73.5106 34.5763C73.3858 34.4524 73.2388 34.3551 73.0695 34.2843C72.9002 34.2134 72.7218 34.1781 72.5348 34.1781H70.7167C70.405 34.1781 70.2489 34.3286 70.2489 34.6294V40.0726C70.2489 40.2142 70.2956 40.3249 70.3894 40.4044C70.4829 40.4842 70.592 40.524 70.7167 40.524C70.8505 40.524 70.9597 40.4864 71.0443 40.4111C71.1289 40.3358 71.1713 40.2232 71.1713 40.0726V35.0808H72.5348C72.6685 35.0808 72.7776 35.125 72.8623 35.2136C72.947 35.302 72.9892 35.4082 72.9892 35.5321C72.9892 35.6738 73.036 35.7844 73.1297 35.8641C73.2232 35.9437 73.3323 35.9837 73.457 35.9837C73.5908 35.9837 73.7 35.946 73.7847 35.8707C73.8693 35.7955 73.9115 35.6826 73.9115 35.5321ZM81.9397 38.7051C81.9397 38.9618 81.8507 39.1788 81.6725 39.3558C81.4941 39.5327 81.2758 39.6213 81.0173 39.6213H80.1084C79.8499 39.6213 79.6339 39.5327 79.46 39.3558C79.2864 39.1788 79.1995 38.9618 79.1995 38.7051V35.9837C79.1995 35.7357 79.2864 35.5233 79.46 35.3463C79.6339 35.1694 79.8499 35.0808 80.1084 35.0808H81.9397V38.7051ZM82.3809 39.9266C82.568 40.1656 82.8176 40.3513 83.1294 40.4842C83.1918 40.5195 83.2543 40.5373 83.3167 40.5373C83.4503 40.5373 83.5594 40.4885 83.644 40.3914C83.7287 40.2939 83.7711 40.1832 83.7711 40.0593C83.7711 39.8735 83.6731 39.7407 83.4771 39.6611C83.2898 39.5725 83.1384 39.442 83.0224 39.2693C82.9066 39.0968 82.8488 38.9087 82.8488 38.7051V34.6294C82.8488 34.3286 82.6973 34.1781 82.3943 34.1781H80.1084C79.6005 34.1781 79.1682 34.3551 78.8118 34.709C78.4554 35.0631 78.277 35.488 78.277 35.9837V38.7051C78.277 39.2186 78.4554 39.6523 78.8118 40.0062C79.1682 40.3513 79.6005 40.524 80.1084 40.524H81.0173C81.2847 40.524 81.5387 40.4687 81.7794 40.358C82.02 40.2475 82.2205 40.1036 82.3809 39.9266ZM90.8768 35.0808V39.6213H89.0455C88.787 39.6213 88.5709 39.5327 88.3971 39.3558C88.2234 39.1788 88.1366 38.9618 88.1366 38.7051V35.9837C88.1366 35.7357 88.2234 35.5233 88.3971 35.3463C88.5709 35.1694 88.787 35.0808 89.0455 35.0808H90.8768ZM90.8768 34.1781H89.0455C88.5376 34.1781 88.1053 34.3551 87.7489 34.709C87.3925 35.0631 87.2141 35.488 87.2141 35.9837V38.7051C87.2141 39.2186 87.3925 39.6523 87.7489 40.0062C88.1053 40.3513 88.5376 40.524 89.0455 40.524H91.3314C91.6343 40.524 91.7858 40.3735 91.7858 40.0726V31.9078C91.7858 31.7573 91.7413 31.6422 91.6521 31.5626C91.5631 31.4829 91.4561 31.4431 91.3314 31.4431C91.2065 31.4431 91.0996 31.4852 91.0106 31.5693C90.9214 31.6534 90.8768 31.7663 90.8768 31.9078V34.1781ZM97.0737 40.0726V34.6294C97.0737 34.4789 97.0267 34.366 96.9332 34.2909C96.8397 34.2157 96.7349 34.1781 96.6191 34.1781C96.4855 34.1781 96.3739 34.2179 96.285 34.2974C96.1958 34.3772 96.1512 34.4877 96.1512 34.6294V40.0726C96.1512 40.2142 96.1979 40.3249 96.2916 40.4044C96.3852 40.4842 96.4944 40.524 96.6191 40.524C96.7528 40.524 96.8619 40.4864 96.9466 40.4111C97.0313 40.3358 97.0737 40.2232 97.0737 40.0726ZM96.1512 31.9078C96.1512 32.0316 96.1958 32.1379 96.285 32.2265C96.3739 32.3148 96.4855 32.3592 96.6191 32.3592C96.7439 32.3592 96.8509 32.3148 96.9399 32.2265C97.0291 32.1379 97.0737 32.0316 97.0737 31.9078C97.0737 31.7751 97.0291 31.6644 96.9399 31.576C96.8509 31.4874 96.7439 31.4431 96.6191 31.4431C96.4855 31.4431 96.3739 31.4874 96.285 31.576C96.1958 31.6644 96.1512 31.7751 96.1512 31.9078ZM106.011 40.0726V35.9837C106.011 35.479 105.833 35.0498 105.476 34.6959C105.129 34.3506 104.696 34.1781 104.179 34.1781H101.907C101.595 34.1781 101.439 34.3286 101.439 34.6294V40.0726C101.439 40.2142 101.486 40.3249 101.579 40.4044C101.673 40.4842 101.782 40.524 101.907 40.524C102.041 40.524 102.15 40.4864 102.234 40.4111C102.319 40.3358 102.362 40.2232 102.362 40.0726V35.0808H104.179C104.438 35.0808 104.656 35.1694 104.834 35.3463C105.013 35.5233 105.102 35.7357 105.102 35.9837V40.0726C105.102 40.2142 105.146 40.3249 105.235 40.4044C105.324 40.4842 105.431 40.524 105.556 40.524C105.69 40.524 105.799 40.4864 105.884 40.4111C105.968 40.3358 106.011 40.2232 106.011 40.0726ZM114.039 39.6213H112.208C111.949 39.6213 111.733 39.5327 111.559 39.3558C111.385 39.1788 111.299 38.9618 111.299 38.7051V35.9837C111.299 35.7357 111.385 35.5233 111.559 35.3463C111.733 35.1694 111.949 35.0808 112.208 35.0808H114.039V39.6213ZM114.039 40.524V41.4267C114.039 41.6835 113.95 41.9002 113.772 42.0774C113.593 42.2543 113.375 42.3429 113.116 42.3429H111.299C111.147 42.3429 111.033 42.3871 110.958 42.4756C110.882 42.5642 110.844 42.6703 110.844 42.7943C110.844 42.9182 110.884 43.0244 110.964 43.1128C111.044 43.2014 111.156 43.2456 111.299 43.2456H113.116C113.633 43.2456 114.07 43.0687 114.426 42.7145C114.774 42.3694 114.948 41.9402 114.948 41.4267V34.6294C114.948 34.3286 114.796 34.1781 114.493 34.1781H112.208C111.7 34.1781 111.267 34.3551 110.911 34.709C110.554 35.0631 110.376 35.488 110.376 35.9837V38.7051C110.376 39.2186 110.554 39.6523 110.911 40.0062C111.267 40.3513 111.7 40.524 112.208 40.524H114.039ZM128.061 34.1781V31.9078C128.061 31.7573 128.014 31.6422 127.921 31.5626C127.827 31.4829 127.723 31.4431 127.607 31.4431C127.473 31.4431 127.362 31.4852 127.273 31.5693C127.183 31.6534 127.139 31.7663 127.139 31.9078V40.0726C127.139 40.2142 127.186 40.3249 127.279 40.4044C127.373 40.4842 127.482 40.524 127.607 40.524C127.74 40.524 127.85 40.4864 127.934 40.4111C128.019 40.3358 128.061 40.2232 128.061 40.0726V35.0808H129.879C130.138 35.0808 130.356 35.1694 130.534 35.3463C130.712 35.5233 130.802 35.7357 130.802 35.9837V40.0726C130.802 40.2142 130.846 40.3249 130.935 40.4044C131.024 40.4842 131.131 40.524 131.256 40.524C131.39 40.524 131.499 40.4864 131.583 40.4111C131.668 40.3358 131.711 40.2232 131.711 40.0726V35.9837C131.711 35.479 131.532 35.0498 131.176 34.6959C130.828 34.3506 130.396 34.1781 129.879 34.1781H128.061ZM140.648 38.5326V36.1694C140.648 35.6207 140.452 35.1515 140.059 34.7621C139.667 34.3727 139.195 34.1781 138.643 34.1781H138.094C137.551 34.1781 137.074 34.3727 136.664 34.7621C136.272 35.1515 136.076 35.6207 136.076 36.1694V38.5326C136.076 39.0902 136.272 39.5637 136.664 39.9531C137.056 40.3337 137.533 40.524 138.094 40.524H138.643C139.204 40.524 139.676 40.3337 140.059 39.9531C140.452 39.5637 140.648 39.0902 140.648 38.5326ZM139.739 38.5326C139.739 38.8334 139.632 39.0902 139.418 39.3026C139.204 39.5151 138.945 39.6213 138.643 39.6213H138.094C137.792 39.6213 137.533 39.5151 137.319 39.3026C137.105 39.0902 136.998 38.8334 136.998 38.5326V36.1694C136.998 35.8685 137.105 35.6119 137.319 35.3994C137.533 35.187 137.792 35.0808 138.094 35.0808H138.643C138.945 35.0808 139.204 35.187 139.418 35.3994C139.632 35.6119 139.739 35.8685 139.739 36.1694V38.5326ZM149.585 40.0726V34.6294C149.585 34.4789 149.54 34.366 149.451 34.2909C149.362 34.2157 149.255 34.1781 149.13 34.1781C149.005 34.1781 148.898 34.2179 148.809 34.2974C148.72 34.3772 148.676 34.4877 148.676 34.6294V39.6213H146.844C146.586 39.6213 146.37 39.5327 146.196 39.3558C146.022 39.1788 145.935 38.9618 145.935 38.7051V34.6294C145.935 34.4789 145.889 34.366 145.795 34.2909C145.701 34.2157 145.597 34.1781 145.481 34.1781C145.347 34.1781 145.236 34.2179 145.147 34.2974C145.058 34.3772 145.013 34.4877 145.013 34.6294V38.7051C145.013 39.2186 145.191 39.6523 145.548 40.0062C145.904 40.3513 146.336 40.524 146.844 40.524H149.13C149.433 40.524 149.585 40.3735 149.585 40.0726ZM158.241 34.6692C158.41 34.7578 158.495 34.8905 158.495 35.0674C158.495 35.1915 158.453 35.302 158.368 35.3994C158.283 35.4968 158.179 35.5454 158.054 35.5454C157.983 35.5454 157.911 35.5278 157.84 35.4923C157.314 35.2268 156.797 35.0941 156.289 35.0941C155.781 35.0941 155.354 35.2136 155.006 35.4526C154.917 35.5145 154.873 35.603 154.873 35.7181C154.873 35.8331 154.917 35.9172 155.006 35.9703L157.92 37.8688C158.116 37.9927 158.259 38.152 158.348 38.3466C158.437 38.5415 158.482 38.7406 158.482 38.9442C158.482 39.1567 158.435 39.3558 158.341 39.5415C158.248 39.7275 158.112 39.8779 157.934 39.9929C157.408 40.3382 156.811 40.5107 156.142 40.5107C155.483 40.5107 154.855 40.347 154.257 40.0195C154.088 39.9309 154.003 39.8026 154.003 39.6345C154.003 39.5106 154.048 39.4 154.137 39.3026C154.226 39.2052 154.333 39.1567 154.458 39.1567C154.529 39.1567 154.61 39.1788 154.699 39.2229C155.171 39.4796 155.652 39.608 156.142 39.608C156.624 39.608 157.047 39.4841 157.412 39.2362C157.519 39.1742 157.573 39.0726 157.573 38.9309C157.573 38.7982 157.519 38.6962 157.412 38.6255L154.498 36.727C154.329 36.612 154.204 36.4638 154.124 36.2823C154.044 36.1008 154.003 35.9084 154.003 35.7048C154.003 35.51 154.048 35.3198 154.137 35.1339C154.226 34.9481 154.347 34.8064 154.498 34.709C154.988 34.3638 155.585 34.1914 156.289 34.1914C156.949 34.1914 157.599 34.3506 158.241 34.6692ZM163.81 36.8997V35.9837C163.81 35.7357 163.896 35.5233 164.07 35.3463C164.244 35.1694 164.46 35.0808 164.719 35.0808H165.627C165.886 35.0808 166.104 35.1694 166.283 35.3463C166.461 35.5233 166.55 35.7357 166.55 35.9837V36.8997H163.81ZM163.81 37.8024H167.004C167.307 37.8024 167.459 37.6519 167.459 37.351V35.9837C167.459 35.479 167.281 35.0498 166.924 34.6959C166.577 34.3506 166.144 34.1781 165.627 34.1781H164.719C164.211 34.1781 163.778 34.3551 163.422 34.709C163.065 35.0543 162.887 35.479 162.887 35.9837V38.7051C162.887 39.2186 163.065 39.6523 163.422 40.0062C163.778 40.3513 164.211 40.524 164.719 40.524H167.004C167.147 40.524 167.258 40.4775 167.339 40.3847C167.419 40.2918 167.459 40.1877 167.459 40.0726C167.459 39.9398 167.421 39.8314 167.345 39.7473C167.269 39.6632 167.156 39.6213 167.004 39.6213H164.719C164.46 39.6213 164.244 39.5327 164.07 39.3558C163.896 39.1788 163.81 38.9618 163.81 38.7051V37.8024Z" fill="white"/>
</g>
<defs>
<clipPath id="clip0_183_23">
<rect width="170" height="43" fill="white"/>
</clipPath>
</defs>
</svg>