<svg xmlns="http://www.w3.org/2000/svg" width="60" height="60" viewBox="0 0 60 60" fill="none">
  <path d="M15.795 40.8259H13.8231C13.7688 40.8259 13.7222 40.8457 13.683 40.8849C13.6438 40.9241 13.624 40.9707 13.624 41.0245V45.7788C13.624 45.8327 13.6438 45.8792 13.683 45.9184C13.7222 45.958 13.7688 45.9774 13.8231 45.9774H14.4189C14.4728 45.9774 14.5193 45.958 14.5589 45.9184C14.5981 45.8792 14.6175 45.8327 14.6175 45.7788V44.1378H15.795C16.3887 44.1378 16.8501 43.9956 17.1788 43.7108C17.5071 43.4264 17.6717 43.0141 17.6717 42.4743C17.6717 41.9349 17.5071 41.5252 17.1788 41.2455C16.8501 40.9659 16.3887 40.8259 15.795 40.8259ZM16.4279 43.0521C16.2612 43.1624 16.038 43.2179 15.7584 43.2179H14.6175V41.7458H15.7584C16.038 41.7458 16.2612 41.7988 16.4279 41.9039C16.5946 42.0099 16.6782 42.1999 16.6782 42.4743C16.6782 42.7492 16.5946 42.9418 16.4279 43.0521Z" fill="#1C5F43"/>
  <path d="M22.1056 41.3778C21.9264 41.2012 21.7032 41.065 21.4361 40.9694C21.1685 40.8737 20.8531 40.8259 20.4904 40.8259H18.6727C18.6184 40.8259 18.5719 40.8457 18.5327 40.8849C18.4935 40.9241 18.4736 40.9707 18.4736 41.0245V45.7788C18.4736 45.8327 18.4935 45.8792 18.5327 45.9184C18.5719 45.958 18.6184 45.9774 18.6727 45.9774H20.527C20.8803 45.9774 21.1879 45.9296 21.4507 45.834C21.7131 45.7383 21.9328 45.6022 22.1095 45.4255C22.2857 45.2489 22.4218 45.0356 22.5179 44.7853C22.6135 44.535 22.6708 44.2554 22.6907 43.9465C22.71 43.5833 22.71 43.2201 22.6907 42.8573C22.6708 42.548 22.6135 42.2683 22.5179 42.018C22.4218 41.7677 22.2848 41.5545 22.1056 41.3778ZM21.6972 43.9465C21.6872 44.1033 21.6567 44.2506 21.605 44.3876C21.5537 44.5251 21.4787 44.6431 21.3805 44.7409C21.2827 44.8392 21.1599 44.9167 21.0126 44.9727C20.8656 45.0292 20.6912 45.0576 20.4904 45.0576H19.4671V41.7458H20.4533C20.6644 41.7458 20.8458 41.7742 20.9979 41.8306C21.15 41.8871 21.2762 41.9655 21.3771 42.0659C21.4774 42.1667 21.5537 42.2843 21.605 42.4192C21.6567 42.5544 21.6873 42.7001 21.6972 42.8573C21.7165 43.2201 21.7165 43.5833 21.6972 43.9465Z" fill="#1C5F43"/>
  <path d="M26.9954 40.8259H23.8533C23.7991 40.8259 23.7525 40.8457 23.7133 40.8849C23.6741 40.9241 23.6543 40.9707 23.6543 41.0245V45.7788C23.6543 45.8327 23.6741 45.8792 23.7133 45.9184C23.7525 45.958 23.7991 45.9774 23.8533 45.9774H24.4492C24.503 45.9774 24.5496 45.958 24.5892 45.9184C24.6284 45.8792 24.6478 45.8327 24.6478 45.7788V44.0934H26.8485C26.9024 44.0934 26.9489 44.074 26.9881 44.0348C27.0273 43.9956 27.0471 43.9486 27.0471 43.8948V43.3722C27.0471 43.3183 27.0273 43.2718 26.9881 43.2326C26.9489 43.1934 26.9024 43.1735 26.8485 43.1735H24.6478V41.7458H26.9954C27.0493 41.7458 27.0962 41.7264 27.1354 41.6872C27.1746 41.6479 27.194 41.601 27.194 41.5471V41.0245C27.194 40.9707 27.1747 40.9241 27.1354 40.8849C27.0962 40.8457 27.0493 40.8259 26.9954 40.8259Z" fill="#1C5F43"/>
  <path d="M52.9881 16.1435C52.9801 16.1196 52.9739 16.0965 52.9633 16.0736C52.931 16.0028 52.8903 15.9355 52.8332 15.8784L38.9146 1.96025C38.8578 1.90349 38.7908 1.86288 38.7203 1.83073C38.6973 1.82007 38.674 1.81371 38.6501 1.80574C38.5999 1.78942 38.5497 1.7794 38.4972 1.77532C38.4788 1.77375 38.4623 1.76465 38.4437 1.76465H13.8529C11.9016 1.76465 10.3144 3.35185 10.3144 5.3031V36.4259H9.39717C8.059 36.4259 6.9707 37.5146 6.9707 38.8523V48.2459C6.9707 49.584 8.059 50.6723 9.39717 50.6723H10.3144V54.7058C10.3144 56.6519 11.9016 58.2352 13.8529 58.2352H49.4908C51.4421 58.2352 53.0293 56.6519 53.0293 54.7058V16.3502C53.0293 16.3312 53.02 16.314 53.0183 16.2952C53.0142 16.2432 53.0043 16.1932 52.9881 16.1435ZM39.1085 4.02697L50.7661 15.6845H41.3204C40.1007 15.6845 39.1085 14.6923 39.1085 13.4726L39.1085 4.02697ZM8.29423 48.2459V38.8523C8.29423 38.244 8.78884 37.7494 9.39717 37.7494H30.7387C31.4961 37.7494 32.1122 38.3655 32.1122 39.1229V47.9749C32.1122 48.7323 31.4961 49.3488 30.7387 49.3488H9.39717C8.78883 49.3488 8.29423 48.8542 8.29423 48.2459ZM49.4908 56.9117H13.8529C12.6315 56.9117 11.638 55.9221 11.638 54.7058V50.6723H30.7387C32.2259 50.6723 33.4357 49.4621 33.4357 47.9749V39.1229C33.4357 37.6357 32.2259 36.4259 30.7387 36.4259H11.638V5.3031C11.638 4.08168 12.6315 3.08818 13.8529 3.08818H37.785V13.4726C37.785 15.4222 39.3709 17.0081 41.3204 17.0081H51.7057V54.7058C51.7057 55.9221 50.7122 56.9117 49.4908 56.9117Z" fill="#1C5F43"/>
  <path d="M42.9659 25.0369H20.3776C20.0122 25.0369 19.7158 25.3333 19.7158 25.6986C19.7158 26.064 20.0122 26.3604 20.3776 26.3604H42.9659C43.3313 26.3604 43.6277 26.064 43.6277 25.6986C43.6277 25.3333 43.3313 25.0369 42.9659 25.0369Z" fill="#1C5F43"/>
  <path d="M20.3776 21.2166H31.6715C32.0369 21.2166 32.3333 20.9202 32.3333 20.5548C32.3333 20.1895 32.0369 19.8931 31.6715 19.8931H20.3776C20.0122 19.8931 19.7158 20.1895 19.7158 20.5548C19.7158 20.9202 20.0122 21.2166 20.3776 21.2166Z" fill="#1C5F43"/>
  <path d="M42.9659 30.1807H20.3776C20.0122 30.1807 19.7158 30.4771 19.7158 30.8424C19.7158 31.2078 20.0122 31.5042 20.3776 31.5042H42.9659C43.3313 31.5042 43.6277 31.2078 43.6277 30.8424C43.6277 30.4771 43.3313 30.1807 42.9659 30.1807Z" fill="#1C5F43"/>
</svg>