<svg xmlns="http://www.w3.org/2000/svg" width="20" height="20" viewBox="0 0 20 20" fill="none">
  <path d="M13.8089 13.4588C15.1306 12.0726 15.8719 10.2333 15.8808 8.3181C15.8897 6.40286 15.1656 4.55678 13.8568 3.15839C12.5481 1.76001 10.754 0.91528 8.84239 0.797426C6.93076 0.679573 5.04647 1.29752 3.57589 2.52456C2.10532 3.7516 1.15989 5.49475 0.933474 7.39658C0.707057 9.29841 1.21681 11.2148 2.3582 12.7528C3.49959 14.2908 5.18613 15.3339 7.072 15.6681C8.95787 16.0024 10.9002 15.6025 12.5006 14.5504L17.7089 19.7588L18.8923 18.5754L13.8089 13.4588ZM11.3089 13.3421C10.0343 14.113 8.51498 14.3724 7.05677 14.0682C5.59856 13.764 4.30971 12.9187 3.44963 11.7025C2.58955 10.4862 2.22209 8.98937 2.42121 7.51313C2.62033 6.03689 3.37125 4.69088 4.52282 3.74599C5.6744 2.80111 7.14114 2.32751 8.62784 2.42051C10.1145 2.51351 11.5108 3.16621 12.5357 4.24724C13.5605 5.32827 14.1378 6.75738 14.1514 8.24692C14.165 9.73647 13.6139 11.1759 12.6089 12.2754C12.2349 12.6887 11.8026 13.0452 11.3256 13.3338L11.3089 13.3421Z" fill="#151616"/>
</svg>