<svg xmlns="http://www.w3.org/2000/svg" width="20" height="20" viewBox="0 0 20 20" fill="none">
  <g clip-path="url(#clip0_252_1783)">
    <path d="M7.93204 16.3705V8.96695C7.93204 8.84263 7.98142 8.7234 8.06933 8.6355C8.15724 8.54759 8.27647 8.4982 8.40079 8.4982C8.52511 8.4982 8.64434 8.54759 8.73224 8.6355C8.82015 8.7234 8.86954 8.84263 8.86954 8.96695V16.3705C8.86954 16.4949 8.82015 16.6141 8.73224 16.702C8.64434 16.7899 8.52511 16.8393 8.40079 16.8393C8.27647 16.8393 8.15724 16.7899 8.06933 16.702C7.98142 16.6141 7.93204 16.4949 7.93204 16.3705ZM11.5984 16.8393C11.7227 16.8393 11.8419 16.7899 11.9298 16.702C12.0177 16.6141 12.0671 16.4949 12.0671 16.3705V8.96695C12.0671 8.84263 12.0177 8.7234 11.9298 8.6355C11.8419 8.54759 11.7227 8.4982 11.5984 8.4982C11.474 8.4982 11.3548 8.54759 11.2669 8.6355C11.179 8.7234 11.1296 8.84263 11.1296 8.96695V16.3705C11.1296 16.4949 11.179 16.6141 11.2669 16.702C11.3548 16.7899 11.474 16.8393 11.5984 16.8393ZM17.3346 5.5177C17.3327 5.61988 17.3309 5.71641 17.3309 5.80625C17.3309 5.93057 17.2815 6.0498 17.1936 6.13771C17.1057 6.22561 16.9865 6.275 16.8622 6.275H16.5683V18.2031C16.5678 18.6795 16.3783 19.1362 16.0414 19.4731C15.7045 19.8099 15.2478 19.9994 14.7715 20H5.22782C4.75143 19.9994 4.29472 19.8099 3.95786 19.4731C3.62101 19.1362 3.43151 18.6795 3.43094 18.2031V6.275H3.137C3.01268 6.275 2.89345 6.22561 2.80554 6.13771C2.71763 6.0498 2.66825 5.93057 2.66825 5.80625C2.66825 5.71641 2.66641 5.61988 2.66454 5.5177C2.65114 4.80523 2.63442 3.91855 3.17735 3.36535C3.46274 3.07453 3.85469 2.92707 4.34227 2.92707H6.37743C6.36465 2.10828 6.367 1.1152 6.97204 0.500234C7.29868 0.16832 7.75036 0 8.31462 0H11.6845C12.2488 0 12.7005 0.168242 13.027 0.5C13.6325 1.1152 13.6341 2.10879 13.6215 2.92703H15.6569C16.1445 2.92703 16.5364 3.07449 16.8218 3.36531C17.3647 3.91855 17.348 4.80523 17.3346 5.5177ZM7.31508 2.92703H12.6838C12.694 2.28113 12.6965 1.50086 12.3588 1.1575C12.2131 1.00949 11.9925 0.9375 11.6845 0.9375H8.31462C8.00669 0.9375 7.78618 1.00953 7.6404 1.1577C7.3027 1.50094 7.30493 2.28062 7.31512 2.92703H7.31508ZM3.59903 5.3375H16.4001C16.4072 4.83465 16.3936 4.26742 16.1527 4.02195C16.1145 3.98289 15.9982 3.86453 15.6569 3.86453H4.34227C4.00098 3.86453 3.88469 3.98301 3.84645 4.02195C3.60555 4.26742 3.592 4.83465 3.59903 5.3375ZM15.6308 6.275H4.36833V18.2031C4.3686 18.431 4.45924 18.6494 4.62034 18.8105C4.78144 18.9716 4.99987 19.0622 5.2277 19.0625H14.7713C14.9992 19.0622 15.2176 18.9716 15.3787 18.8105C15.5398 18.6494 15.6304 18.431 15.6307 18.2031L15.6308 6.275Z" fill="#8E8E8D"/>
  </g>
  <defs>
    <clipPath id="clip0_252_1783">
      <rect width="20" height="20" fill="white"/>
    </clipPath>
  </defs>
</svg>