<svg xmlns="http://www.w3.org/2000/svg" width="40" height="40" viewBox="0 0 40 40" fill="none">
  <g clip-path="url(#clip0_205_3)">
    <path d="M6.0957 9.28418C6.00195 9.18213 5.87061 9.12354 5.73193 9.12207C5.61133 9.12354 5.46045 9.17725 5.36523 9.27686C5.16895 9.48291 3.44873 11.3325 3.44873 12.8921C3.44873 14.1484 4.4707 15.1704 5.72705 15.1704C6.9834 15.1704 8.00537 14.1484 8.00537 12.8921C8.00537 11.4106 6.29102 9.49756 6.0957 9.28418ZM5.72705 14.1704C5.02197 14.1704 4.44873 13.5972 4.44873 12.8921C4.44873 12.1152 5.18604 11.0415 5.72119 10.3877C6.25928 11.0605 7.00537 12.1567 7.00537 12.8921C7.00537 13.5972 6.43213 14.1704 5.72705 14.1704Z" fill="white"/>
    <path d="M20.3687 9.28418C20.2749 9.18213 20.1436 9.12354 20.0049 9.12207C19.8442 9.12354 19.7329 9.17725 19.6382 9.27686C19.4419 9.48291 17.7217 11.3325 17.7217 12.8921C17.7217 14.1484 18.7437 15.1704 20 15.1704C21.2563 15.1704 22.2783 14.1484 22.2783 12.8921C22.2783 11.4106 20.564 9.49756 20.3687 9.28418ZM20 14.1704C19.2949 14.1704 18.7217 13.5972 18.7217 12.8921C18.7217 12.1152 19.459 11.0415 19.9941 10.3877C20.5322 11.0605 21.2783 12.1567 21.2783 12.8921C21.2783 13.5972 20.7051 14.1704 20 14.1704Z" fill="white"/>
    <path d="M34.6416 9.28418C34.5479 9.18213 34.4165 9.12354 34.2778 9.12207C34.1235 9.12354 34.0063 9.17725 33.9111 9.27686C33.7148 9.48291 31.9946 11.3325 31.9946 12.8921C31.9946 14.1484 33.0166 15.1704 34.2729 15.1704C35.5293 15.1704 36.5513 14.1484 36.5513 12.8921C36.5513 11.4106 34.8369 9.49756 34.6416 9.28418ZM34.2729 14.1704C33.5679 14.1704 32.9946 13.5972 32.9946 12.8921C32.9946 12.1152 33.7319 11.0415 34.2671 10.3877C34.8052 11.0605 35.5513 12.1567 35.5513 12.8921C35.5513 13.5972 34.978 14.1704 34.2729 14.1704Z" fill="white"/>
    <path d="M39.5435 0.597656C39.2095 0.228516 38.7329 0.0170898 38.2354 0.0170898H30.3823C29.4463 0.0170898 28.6436 0.713379 28.5547 1.60254C28.5049 2.10107 28.668 2.59912 29.0025 2.96826C29.2559 3.24854 29.5913 3.43799 29.9561 3.5127V35.6626C29.9561 38.0449 31.8926 39.9829 34.273 39.9829C36.6528 39.9829 38.5894 38.0449 38.5894 35.6626V3.5C39.3325 3.32715 39.916 2.71387 39.9912 1.96338C40.041 1.46484 39.8779 0.966797 39.5435 0.597656ZM37.5894 35.6626C37.5894 37.4937 36.1016 38.9829 34.273 38.9829C32.4439 38.9829 30.9561 37.4937 30.9561 35.6626V7.55762H37.5894V35.6626ZM38.9961 1.86377C38.9575 2.24805 38.5918 2.54883 38.1636 2.54883H38.0894C37.813 2.54883 37.5894 2.77246 37.5894 3.04883V6.55762H30.9561V3.04883C30.9561 2.77246 30.7324 2.54883 30.4561 2.54883H30.3101C30.0918 2.54883 29.8906 2.45947 29.7437 2.29736C29.5967 2.13477 29.5278 1.92334 29.5498 1.70215C29.5884 1.31787 29.9541 1.01709 30.3823 1.01709H38.2354C38.4541 1.01709 38.6553 1.10645 38.8023 1.26904C38.9492 1.43115 39.0181 1.64258 38.9961 1.86377Z" fill="white"/>
    <path d="M25.2705 0.597656C24.9365 0.228516 24.46 0.0170898 23.9629 0.0170898H16.1094C15.1734 0.0170898 14.3706 0.713379 14.2818 1.60254C14.232 2.10107 14.395 2.59912 14.7295 2.96826C14.9829 3.24854 15.3184 3.43799 15.6831 3.5127V35.6626C15.6831 38.0449 17.6196 39.9829 20 39.9829C22.3804 39.9829 24.3169 38.0449 24.3169 35.6626V3.5C25.0596 3.32666 25.6431 2.71387 25.7183 1.96338C25.7681 1.46484 25.605 0.966797 25.2705 0.597656ZM23.3169 35.6626C23.3169 37.4937 21.8291 38.9829 20 38.9829C18.1709 38.9829 16.6831 37.4937 16.6831 35.6626V7.55762H23.3169V35.6626ZM24.7232 1.86377C24.6846 2.24805 24.3189 2.54883 23.8906 2.54883H23.8169C23.5405 2.54883 23.3169 2.77246 23.3169 3.04883V6.55762H16.6831V3.04883C16.6831 2.77246 16.4595 2.54883 16.1831 2.54883H16.0371C15.8189 2.54883 15.6177 2.45947 15.4707 2.29736C15.3237 2.13477 15.2549 1.92334 15.2769 1.70215C15.3154 1.31787 15.6812 1.01709 16.1094 1.01709H23.9629C24.1812 1.01709 24.3823 1.10645 24.5293 1.26855C24.6763 1.43115 24.7451 1.64258 24.7232 1.86377Z" fill="white"/>
    <path d="M10.9976 0.597656C10.6636 0.228516 10.187 0.0170898 9.68996 0.0170898H1.83644C0.900408 0.0170898 0.0976734 0.713379 0.00880625 1.60254C-0.0409984 2.10107 0.122088 2.59912 0.45656 2.96826C0.709978 3.24854 1.04592 3.43799 1.41066 3.5127V35.6626C1.41066 38.0449 3.34719 39.9829 5.72707 39.9829C8.10744 39.9829 10.044 38.0449 10.044 35.6626V3.5C10.7866 3.32666 11.3701 2.71387 11.4453 1.96338C11.4951 1.46484 11.332 0.966797 10.9976 0.597656ZM9.04396 35.6626C9.04396 37.4937 7.55617 38.9829 5.72707 38.9829C3.89845 38.9829 2.41066 37.4937 2.41066 35.6626V7.55762H9.04396V35.6626ZM10.4502 1.86377C10.4116 2.24805 10.0459 2.54883 9.61769 2.54883H9.54396C9.2676 2.54883 9.04396 2.77246 9.04396 3.04883V6.55762H2.41066V3.04883C2.41066 2.77246 2.18703 2.54883 1.91066 2.54883H1.76467C1.54592 2.54883 1.34474 2.45947 1.19777 2.29688C1.0508 2.13477 0.981951 1.92334 1.00392 1.70215C1.0425 1.31787 1.40822 1.01709 1.83644 1.01709H9.68996C9.90822 1.01709 10.1094 1.10645 10.2564 1.26855C10.4033 1.43115 10.4722 1.64258 10.4502 1.86377Z" fill="white"/>
  </g>
  <defs>
    <clipPath id="clip0_205_3">
      <rect width="40" height="40" fill="white"/>
    </clipPath>
  </defs>
</svg>