<svg xmlns="http://www.w3.org/2000/svg" width="40" height="40" viewBox="0 0 40 40" fill="none">
  <path d="M14.8973 12.2594C13.7919 12.2594 12.7112 11.9316 11.7921 11.3175C10.873 10.7033 10.1566 9.83043 9.73356 8.80914C9.31053 7.78785 9.19984 6.66405 9.4155 5.57985C9.63116 4.49565 10.1635 3.49976 10.9451 2.71809C11.7268 1.93643 12.7227 1.40411 13.8069 1.18845C14.8911 0.972792 16.0149 1.08348 17.0362 1.50651C18.0575 1.92954 18.9304 2.64592 19.5445 3.56506C20.1587 4.4842 20.4865 5.56481 20.4865 6.67025C20.4851 8.15215 19.8957 9.57295 18.8479 10.6208C17.8 11.6687 16.3792 12.258 14.8973 12.2594ZM14.8973 2.16214C14.0057 2.16214 13.1341 2.42653 12.3927 2.92189C11.6514 3.41725 11.0736 4.12132 10.7323 4.94507C10.3911 5.76882 10.3019 6.67525 10.4758 7.54974C10.6498 8.42422 11.0791 9.22749 11.7096 9.85796C12.3401 10.4884 13.1433 10.9178 14.0178 11.0917C14.8923 11.2657 15.7987 11.1764 16.6225 10.8352C17.4462 10.494 18.1503 9.91617 18.6457 9.17482C19.141 8.43346 19.4054 7.56187 19.4054 6.67025C19.404 5.47506 18.9286 4.32924 18.0834 3.48411C17.2383 2.63899 16.0925 2.16357 14.8973 2.16214Z" fill="white"/>
  <path d="M7.21084 38.2811C6.10387 38.2822 5.02147 37.9548 4.10062 37.3405C3.17976 36.7262 2.46185 35.8525 2.03774 34.83C1.61363 33.8075 1.50238 32.6821 1.71808 31.5964C1.93377 30.5106 2.46672 29.5133 3.24946 28.7305C4.0322 27.9478 5.02956 27.4149 6.11531 27.1992C7.20106 26.9835 8.32639 27.0947 9.34889 27.5188C10.3714 27.9429 11.2451 28.6608 11.8594 29.5817C12.4738 30.5025 12.8011 31.585 12.8 32.6919C12.7986 34.1738 12.2093 35.5946 11.1614 36.6425C10.1135 37.6904 8.69275 38.2797 7.21084 38.2811ZM7.21084 28.1784C6.31792 28.1773 5.44475 28.4411 4.7018 28.9364C3.95884 29.4317 3.37949 30.1363 3.03705 30.9609C2.6946 31.7856 2.60444 32.6933 2.77799 33.5691C2.95153 34.445 3.38098 35.2498 4.01199 35.8815C4.643 36.5133 5.44722 36.9437 6.3229 37.1183C7.19858 37.2929 8.10638 37.2038 8.93143 36.8624C9.75648 36.5209 10.4617 35.9424 10.9579 35.2001C11.4541 34.4577 11.7189 33.5848 11.7189 32.6919C11.7175 31.4962 11.2423 30.3499 10.3973 29.5039C9.55233 28.6579 8.40652 28.1813 7.21084 28.1784Z" fill="white"/>
  <path d="M31.2596 38.9189C30.1542 38.9189 29.0736 38.5911 28.1544 37.9769C27.2353 37.3628 26.5189 36.4899 26.0959 35.4686C25.6728 34.4473 25.5621 33.3235 25.7778 32.2393C25.9935 31.1551 26.5258 30.1592 27.3074 29.3775C28.0891 28.5959 29.085 28.0635 30.1692 27.8479C31.2534 27.6322 32.3772 27.7429 33.3985 28.1659C34.4198 28.589 35.2927 29.3053 35.9068 30.2245C36.521 31.1436 36.8488 32.2242 36.8488 33.3297C36.8474 34.8116 36.258 36.2324 35.2102 37.2802C34.1623 38.3281 32.7415 38.9174 31.2596 38.9189ZM31.2596 28.8216C30.368 28.8216 29.4964 29.086 28.755 29.5813C28.0137 30.0767 27.4359 30.7807 27.0947 31.6045C26.7534 32.4282 26.6642 33.3347 26.8381 34.2092C27.0121 35.0836 27.4414 35.8869 28.0719 36.5174C28.7024 37.1479 29.5056 37.5772 30.3801 37.7512C31.2546 37.9251 32.161 37.8358 32.9848 37.4946C33.8085 37.1534 34.5126 36.5756 35.008 35.8342C35.5033 35.0929 35.7677 34.2213 35.7677 33.3297C35.7663 32.1345 35.2909 30.9887 34.4457 30.1435C33.6006 29.2984 32.4548 28.823 31.2596 28.8216Z" fill="white"/>
  <path d="M33.1349 23.4486C32.0966 23.4497 31.0813 23.1427 30.2175 22.5667C29.3536 21.9906 28.68 21.1712 28.2819 20.2123C27.8839 19.2533 27.7791 18.1978 27.9811 17.1793C28.183 16.1608 28.6824 15.2251 29.4162 14.4905C30.1501 13.7559 31.0853 13.2555 32.1036 13.0525C33.1218 12.8496 34.1774 12.9532 35.1368 13.3503C36.0962 13.7474 36.9163 14.4201 37.4932 15.2834C38.0702 16.1466 38.3782 17.1616 38.3782 18.1999C38.3767 19.5906 37.824 20.924 36.8412 21.9078C35.8584 22.8917 34.5256 23.4457 33.1349 23.4486ZM33.1349 14.054C32.3102 14.0529 31.5037 14.2966 30.8175 14.7541C30.1313 15.2116 29.5963 15.8625 29.2802 16.6242C28.9641 17.386 28.8811 18.2244 29.0418 19.0333C29.2024 19.8422 29.5994 20.5853 30.1826 21.1685C30.7658 21.7516 31.5089 22.1487 32.3178 22.3093C33.1267 22.4699 33.9651 22.387 34.7269 22.0709C35.4886 21.7548 36.1394 21.2197 36.597 20.5336C37.0545 19.8474 37.2981 19.0409 37.2971 18.2162C37.2956 17.1127 36.8567 16.0549 36.0764 15.2746C35.2962 14.4944 34.2383 14.0554 33.1349 14.054Z" fill="white"/>
  <path d="M21.4756 28.3784C20.3937 28.3784 19.3361 28.0576 18.4365 27.4565C17.5369 26.8554 16.8358 26.0011 16.4218 25.0015C16.0077 24.002 15.8994 22.9021 16.1105 21.8409C16.3216 20.7798 16.8425 19.8051 17.6076 19.0401C18.3726 18.275 19.3473 17.7541 20.4084 17.543C21.4696 17.3319 22.5695 17.4402 23.569 17.8543C24.5686 18.2683 25.4229 18.9694 26.024 19.869C26.6251 20.7686 26.9459 21.8262 26.9459 22.9081C26.9445 24.3585 26.3677 25.7491 25.3421 26.7746C24.3166 27.8002 22.926 28.377 21.4756 28.3784ZM21.4756 18.5189C20.6075 18.5189 19.7589 18.7764 19.0371 19.2587C18.3153 19.741 17.7528 20.4264 17.4206 21.2285C17.0884 22.0305 17.0014 22.913 17.1708 23.7644C17.3401 24.6158 17.7582 25.3979 18.372 26.0118C18.9859 26.6256 19.7679 27.0436 20.6194 27.213C21.4708 27.3823 22.3533 27.2954 23.1553 26.9632C23.9573 26.631 24.6428 26.0684 25.1251 25.3466C25.6074 24.6248 25.8648 23.7762 25.8648 22.9081C25.8648 21.7441 25.4024 20.6276 24.5793 19.8045C23.7561 18.9814 22.6397 18.5189 21.4756 18.5189Z" fill="white"/>
  <path d="M14.6758 12.0842L15.6671 11.6529L18.8225 18.9046L17.8311 19.336L14.6758 12.0842Z" fill="white"/>
  <path d="M26.1597 21.9197L29.2563 20.6703L29.6607 21.6725L26.564 22.9218L26.1597 21.9197Z" fill="white"/>
  <path d="M25.1309 19.361L28.3227 18.0732L28.7271 19.0754L25.5352 20.3631L25.1309 19.361Z" fill="white"/>
  <path d="M17.2383 11.0542L18.2296 10.6228L21.3526 17.8002L20.3613 18.2316L17.2383 11.0542Z" fill="white"/>
  <path d="M11.7095 30.6375L18.0954 26.2563L18.7073 27.1482L12.3214 31.5293L11.7095 30.6375Z" fill="white"/>
  <path d="M23.291 27.6644L24.0791 26.925L27.3032 30.3611L26.5151 31.1006L23.291 27.6644Z" fill="white"/>
  <path d="M25.3184 25.7894L26.1065 25.05L29.349 28.5058L28.5609 29.2453L25.3184 25.7894Z" fill="white"/>
  <path d="M10.1484 28.3635L16.5076 24.0007L17.1195 24.8926L10.7603 29.2554L10.1484 28.3635Z" fill="white"/>
</svg>