<svg xmlns="http://www.w3.org/2000/svg" width="40" height="40" viewBox="0 0 40 40" fill="none">
  <path d="M20.2202 38.4375C16.8319 38.4375 14.0757 36.4281 14.0757 33.9578V18.2031C14.0757 18.0374 14.1415 17.8784 14.2587 17.7612C14.376 17.644 14.5349 17.5781 14.7007 17.5781C14.8664 17.5781 15.0254 17.644 15.1426 17.7612C15.2598 17.8784 15.3257 18.0374 15.3257 18.2031V33.9578C15.3257 35.7086 17.5671 37.1875 20.2202 37.1875C22.8733 37.1875 25.1155 35.7086 25.1155 33.9578V18.2031C25.1155 18.0374 25.1814 17.8784 25.2986 17.7612C25.4158 17.644 25.5748 17.5781 25.7405 17.5781C25.9063 17.5781 26.0653 17.644 26.1825 17.7612C26.2997 17.8784 26.3655 18.0374 26.3655 18.2031V33.9578C26.3655 36.4281 23.6085 38.4375 20.2202 38.4375Z" fill="white"/>
  <path d="M25.7376 18.9H14.7032C14.1639 18.8851 13.6518 18.6605 13.2756 18.2739C12.8994 17.8872 12.689 17.3691 12.689 16.8296C12.689 16.2902 12.8994 15.772 13.2756 15.3854C13.6518 14.9988 14.1639 14.7741 14.7032 14.7593H25.7376C26.0142 14.7517 26.2896 14.7997 26.5474 14.9003C26.8053 15.0009 27.0403 15.1522 27.2387 15.3452C27.437 15.5382 27.5947 15.769 27.7024 16.0239C27.8101 16.2789 27.8655 16.5529 27.8655 16.8296C27.8655 17.1064 27.8101 17.3804 27.7024 17.6353C27.5947 17.8903 27.437 18.1211 27.2387 18.3141C27.0403 18.5071 26.8053 18.6584 26.5474 18.759C26.2896 18.8596 26.0142 18.9076 25.7376 18.9ZM14.7032 16.0093C14.4918 16.0186 14.2922 16.109 14.1459 16.2618C13.9996 16.4147 13.9179 16.6181 13.9179 16.8296C13.9179 17.0412 13.9996 17.2446 14.1459 17.3974C14.2922 17.5503 14.4918 17.6407 14.7032 17.65H25.7376C25.8483 17.6548 25.9589 17.6371 26.0626 17.5981C26.1663 17.5591 26.2611 17.4994 26.3412 17.4228C26.4212 17.3461 26.485 17.254 26.5285 17.1521C26.572 17.0502 26.5945 16.9405 26.5945 16.8296C26.5945 16.7188 26.572 16.6091 26.5285 16.5072C26.485 16.4052 26.4212 16.3132 26.3412 16.2365C26.2611 16.1599 26.1663 16.1002 26.0626 16.0612C25.9589 16.0221 25.8483 16.0045 25.7376 16.0093H14.7032Z" fill="white"/>
  <path d="M21.4846 30.8469C21.4245 30.8469 21.3643 30.8469 21.3041 30.8414C20.4182 30.7859 19.651 30.3211 19.0854 29.4969C18.612 28.807 18.0784 28.4375 17.4987 28.3976C16.3104 28.3195 15.1791 29.5484 15.1674 29.5609C15.0552 29.6792 14.9013 29.749 14.7384 29.7554C14.5754 29.7618 14.4165 29.7043 14.2954 29.5951C14.1743 29.486 14.1006 29.3338 14.0902 29.1711C14.0797 29.0084 14.1332 28.848 14.2393 28.7242C14.301 28.6547 15.7791 27.032 17.5768 27.15C18.5596 27.2148 19.4135 27.7664 20.1159 28.7906C20.4651 29.2992 20.8791 29.5625 21.3807 29.5945C22.8104 29.6852 24.6784 27.9586 25.2768 27.2859C25.3313 27.2244 25.3974 27.1742 25.4714 27.1382C25.5453 27.1022 25.6256 27.0811 25.7077 27.0761C25.7898 27.0711 25.8721 27.0824 25.9498 27.1092C26.0275 27.136 26.0992 27.1779 26.1608 27.2324C26.2223 27.2869 26.2726 27.3531 26.3086 27.427C26.3446 27.5009 26.3656 27.5812 26.3706 27.6633C26.3756 27.7454 26.3643 27.8277 26.3375 27.9054C26.3107 27.9831 26.2688 28.0548 26.2143 28.1164C26.1073 28.2297 23.7573 30.8469 21.4846 30.8469Z" fill="white"/>
  <path d="M15.9493 12.3812C14.4905 12.3971 13.0662 11.9378 11.8915 11.0726C8.20791 8.3804 7.47197 2.51009 7.44228 2.26087C7.43123 2.16703 7.44159 2.07191 7.4726 1.98265C7.5036 1.89339 7.55444 1.81233 7.6213 1.74555C7.68815 1.67878 7.76927 1.62803 7.85856 1.59712C7.94785 1.56622 8.04299 1.55596 8.13681 1.56712C8.38525 1.59603 14.2556 2.33274 16.9477 6.02024C18.1259 7.63196 18.5102 9.55149 18.0931 11.7234C18.0696 11.8461 18.0098 11.959 17.9215 12.0474C17.8332 12.1358 17.7204 12.1958 17.5977 12.2195C17.0546 12.3253 16.5027 12.3794 15.9493 12.3812ZM8.82822 2.95228C9.16103 4.60071 10.1563 8.25618 12.6321 10.0656C13.8485 10.9531 15.2938 11.2874 16.936 11.0609C17.1626 9.42024 16.8282 7.97259 15.9407 6.75696C14.1321 4.27884 10.4767 3.28587 8.82822 2.95228Z" fill="white"/>
  <path d="M24.0507 12.3813C23.4973 12.379 22.9454 12.3243 22.4023 12.218C22.2796 12.1943 22.1668 12.1344 22.0785 12.0459C21.9902 11.9575 21.9305 11.8446 21.907 11.7219C21.489 9.54769 21.8742 7.62815 23.0523 6.01878C25.7445 2.33519 31.6148 1.59847 31.8632 1.56956C31.9571 1.5584 32.0522 1.56866 32.1415 1.59956C32.2308 1.63047 32.3119 1.68122 32.3787 1.748C32.4456 1.81477 32.4964 1.89583 32.5274 1.98509C32.5584 2.07435 32.5688 2.16947 32.5578 2.26331C32.5281 2.51253 31.7921 8.38284 28.1085 11.075C26.9336 11.9394 25.5093 12.3979 24.0507 12.3813ZM23.064 11.061C24.7046 11.2867 26.1546 10.9524 27.371 10.0633C29.8531 8.24925 30.8421 4.59847 31.1734 2.95394C29.5257 3.28675 25.8687 4.28206 24.0593 6.75862C23.1718 7.97269 22.8374 9.41878 23.064 11.061Z" fill="white"/>
  <path d="M20.7963 30.7366C20.7417 30.7365 20.6874 30.7294 20.6346 30.7155C20.5553 30.6943 20.4809 30.6576 20.4157 30.6077C20.3506 30.5577 20.2959 30.4954 20.2549 30.4243C20.2138 30.3532 20.1871 30.2747 20.1764 30.1933C20.1657 30.1119 20.1711 30.0292 20.1924 29.9499C20.4557 28.9663 20.2119 22.2436 20.1197 19.7155C20.094 19.0061 20.0752 18.4936 20.0729 18.2858C20.0706 18.1202 20.1341 17.9604 20.2496 17.8416C20.365 17.7228 20.5229 17.6547 20.6885 17.6522H20.6979C20.862 17.6522 21.0196 17.7168 21.1365 17.832C21.2535 17.9471 21.3204 18.1037 21.3229 18.2678C21.3229 18.4624 21.3447 18.971 21.3697 19.6702C21.5479 24.5733 21.6752 29.2522 21.4002 30.2757C21.3642 30.4082 21.2855 30.5251 21.1763 30.6084C21.0672 30.6917 20.9336 30.7368 20.7963 30.7366ZM20.2166 16.0085C20.0862 16.0084 19.959 15.9676 19.853 15.8916C19.7469 15.8157 19.6673 15.7085 19.6252 15.585C18.808 13.1827 17.1674 12.1475 17.1502 12.135C17.0135 12.0459 16.9171 11.9068 16.8817 11.7475C16.8462 11.5882 16.8744 11.4213 16.9603 11.2826C17.0462 11.1438 17.183 11.0442 17.3414 11.0049C17.4998 10.9657 17.6673 10.9899 17.808 11.0725C17.8908 11.1233 19.8486 12.36 20.808 15.1819C20.8344 15.2596 20.8453 15.3418 20.84 15.4237C20.8346 15.5056 20.8132 15.5857 20.777 15.6593C20.7407 15.7329 20.6903 15.7987 20.6286 15.8529C20.5669 15.907 20.4951 15.9485 20.4174 15.9749C20.3527 15.9969 20.2849 16.0082 20.2166 16.0085Z" fill="white"/>
  <path d="M19.9772 15.3905C19.8452 15.3905 19.7165 15.3487 19.6097 15.2711C19.5029 15.1935 19.4234 15.084 19.3827 14.9585C19.0967 14.0803 19.5264 13.1374 20.6577 12.1561C21.1431 11.7434 21.6663 11.3773 22.2202 11.0624C22.3649 10.9859 22.5339 10.9693 22.6908 11.0161C22.8476 11.0629 22.9799 11.1693 23.0591 11.3126C23.1383 11.4559 23.1581 11.6245 23.1143 11.7822C23.0705 11.94 22.9666 12.0742 22.8249 12.1561C21.7452 12.7538 20.3624 13.9272 20.5733 14.5741C20.5988 14.6522 20.6086 14.7345 20.6023 14.8164C20.5959 14.8983 20.5735 14.9781 20.5363 15.0513C20.4991 15.1245 20.4478 15.1897 20.3854 15.243C20.3229 15.2964 20.2506 15.337 20.1725 15.3624C20.1092 15.3817 20.0434 15.3912 19.9772 15.3905Z" fill="white"/>
</svg>