<svg xmlns="http://www.w3.org/2000/svg" width="40" height="40" viewBox="0 0 40 40" fill="none">
  <path fill-rule="evenodd" clip-rule="evenodd" d="M27.1094 25.7031C24.1406 25.7031 21.4062 24.6875 21.3281 24.6094C21.1719 24.5312 21.0156 24.375 21.0156 24.2188C20.4688 19.4531 21.4844 15.625 24.0625 12.7344C28.75 7.5 37.1094 7.10938 39.5312 7.10938C39.7656 7.10938 39.9219 7.26562 40 7.5C40 7.73438 39.9219 7.96875 39.6875 8.04688C35.3125 9.92188 34.6875 19.0625 34.6875 19.1406L34.6094 19.2188C33.9062 24.6094 30.1562 25.7031 27.1094 25.7031ZM21.9531 23.8281C22.6562 24.0625 24.8438 24.7656 27.1094 24.7656C31.0156 24.7656 33.2031 22.8906 33.75 19.0625C33.75 18.5938 34.2969 11.25 37.8125 8.125C34.5312 8.35938 28.4375 9.29688 24.7656 13.3594C22.4219 16.0156 21.4844 19.5312 21.9531 23.8281Z" fill="white"/>
  <path fill-rule="evenodd" clip-rule="evenodd" d="M19.922 33.2032C19.6877 33.2032 19.4533 33.0469 19.4533 32.8126C19.1408 29.9219 19.5314 27.2657 20.6252 24.8438C21.4845 22.8907 22.8127 21.0938 24.6095 19.5313C27.5002 16.8751 30.547 15.7813 30.7033 15.7032C30.9377 15.6251 31.2502 15.7813 31.3283 16.0157C31.4064 16.2501 31.2502 16.5626 31.0158 16.6407C30.7814 16.7188 27.9689 17.7344 25.1564 20.3126C21.4845 23.6719 19.8439 27.8126 20.3908 32.7344C20.3908 32.9688 20.2345 33.2032 20.0002 33.2032H19.922Z" fill="white"/>
  <path fill-rule="evenodd" clip-rule="evenodd" d="M12.8906 21.1719C9.84375 21.1719 6.09375 20 5.39062 14.6094H5.3125C5.3125 14.5312 4.6875 5.39062 0.3125 3.4375C0.078125 3.35938 0 3.20312 0 2.96875C0 2.8125 0.078125 2.73438 0.15625 2.65625C0.234375 2.57812 0.390625 2.57812 0.46875 2.57812C2.89062 2.57812 11.25 2.96875 15.9375 8.20312C18.5156 11.0938 19.5312 14.9219 18.9844 19.6875C18.9844 19.8438 18.8281 20 18.6719 20.0781C18.5938 20.0781 15.8594 21.1719 12.8906 21.1719ZM6.25 14.5312C6.79688 18.2812 8.98438 20.2344 12.8906 20.2344C15.1562 20.2344 17.3438 19.5312 18.0469 19.2969C18.5156 14.9219 17.5781 11.4062 15.2344 8.82812C11.5625 4.76562 5.46875 3.75 2.1875 3.59375C5.70312 6.71875 6.25 13.9844 6.25 14.5312Z" fill="white"/>
  <path fill-rule="evenodd" clip-rule="evenodd" d="M20.0779 28.6719H19.9998C19.7654 28.6719 19.6092 28.4376 19.6092 28.1251C20.1561 23.2813 18.5154 19.0626 14.7654 15.7032C11.9529 13.2032 8.98419 12.1094 8.98419 12.0313C8.74981 11.9532 8.59356 11.7188 8.67169 11.4844C8.74981 11.2501 9.06231 11.0938 9.29669 11.1719C9.45294 11.2501 12.4998 12.3438 15.3904 15.0001C17.1873 16.5626 18.5154 18.3594 19.3748 20.3126C20.4686 22.7344 20.8592 25.3907 20.5467 28.2813C20.5467 28.5157 20.3123 28.6719 20.0779 28.6719Z" fill="white"/>
  <path fill-rule="evenodd" clip-rule="evenodd" d="M32.7344 37.4219H7.10938C6.95312 37.4219 6.79688 37.3438 6.71875 37.1875C6.64062 37.0312 6.64062 36.875 6.64062 36.7188C7.26562 35.4688 8.90625 34.2969 11.4062 33.5156C13.75 32.7344 16.7969 32.2656 19.9219 32.2656C23.0469 32.2656 26.0938 32.7344 28.4375 33.5156C30.9375 34.2969 32.5781 35.4688 33.2031 36.7188V36.9531C33.2031 37.1875 33.0469 37.4219 32.7344 37.4219ZM7.96875 36.4844H31.875C30.1562 34.6094 25.3125 33.2031 19.9219 33.2031C14.5312 33.2031 9.6875 34.6094 7.96875 36.4844Z" fill="white"/>
</svg>