<svg xmlns="http://www.w3.org/2000/svg" width="40" height="40" viewBox="0 0 40 40" fill="none">
  <g clip-path="url(#clip0_207_268)">
    <path d="M5.57341 7.75659C5.57341 7.4331 5.31096 7.17065 4.98747 7.17065H1.60156C1.27808 7.17065 1.01562 7.4331 1.01562 7.75659C1.01562 8.08007 1.27808 8.34222 1.60156 8.34222H4.98747C5.31096 8.34222 5.57341 8.08007 5.57341 7.75659Z" fill="white"/>
    <path d="M2.29379 5.12791L4.68758 6.26377C4.76876 6.30252 4.85421 6.32053 4.93844 6.32053C5.15755 6.32053 5.36782 6.19693 5.46791 5.98606C5.60677 5.6937 5.48226 5.34428 5.1899 5.20573L2.79611 4.06956C2.50375 3.93071 2.15433 4.05552 2.01578 4.34758C1.87693 4.63993 2.00144 4.98905 2.29379 5.12791Z" fill="white"/>
    <path d="M4.78275 9.25162L2.38896 10.3875C2.09691 10.5263 1.97209 10.8758 2.11094 11.1678C2.21104 11.379 2.42131 11.5026 2.64042 11.5026C2.72465 11.5026 2.8101 11.4846 2.89127 11.4458L5.28506 10.31C5.57742 10.1711 5.70193 9.82169 5.56308 9.52963C5.42453 9.23728 5.0751 9.11276 4.78275 9.25162Z" fill="white"/>
    <path d="M19.9071 31.0131C20.2306 31.0131 20.4927 30.751 20.4927 30.4275V27.0205L21.0555 26.6824C21.5331 27.214 22.1498 27.4941 22.8246 27.4938C23.0602 27.4938 23.3028 27.46 23.5487 27.3907C25.1305 26.946 26.4375 25.2279 26.6563 23.3053C26.6576 23.2955 26.6585 23.2858 26.6591 23.276C26.6856 22.8579 26.5813 22.5131 26.349 22.2515C26.1031 21.9738 25.7341 21.8197 25.2516 21.7926C23.1099 21.6754 21.3448 22.4285 20.6459 23.7576C20.3252 24.3673 20.2693 25.0396 20.4683 25.6683L19.9071 26.0058L19.3444 25.668C19.543 25.0396 19.4878 24.3682 19.1677 23.7588C18.4691 22.4289 16.7037 21.6757 14.5595 21.7926C14.078 21.8197 13.709 21.9738 13.4627 22.2515C13.2305 22.5131 13.1264 22.8579 13.153 23.276C13.1536 23.2858 13.1545 23.2955 13.1554 23.3053C13.3745 25.2279 14.6813 26.946 16.263 27.3907C16.5093 27.46 16.7519 27.4938 16.9875 27.4938C17.6622 27.4938 18.2793 27.2137 18.7569 26.6818L19.3215 27.0205V30.4275C19.3212 30.7507 19.5836 31.0131 19.9071 31.0131ZM21.6826 24.3026C22.0613 23.5827 23.1813 22.8527 25.1869 22.9623C25.3868 22.9733 25.4631 23.0175 25.4729 23.0288C25.4781 23.0358 25.4958 23.0825 25.4906 23.1884C25.3041 24.768 24.1975 25.9915 23.2317 26.2631C22.7913 26.3867 22.4098 26.3174 22.0928 26.0586L23.2182 25.3817C23.4956 25.2151 23.5854 24.8553 23.4187 24.5779C23.2521 24.3008 22.892 24.2114 22.6149 24.3777L21.5276 25.0317C21.5065 24.7872 21.5575 24.5407 21.6826 24.3026ZM18.2851 25.0317L17.1968 24.3777C16.9194 24.2111 16.5596 24.3008 16.393 24.5782C16.2264 24.8556 16.3164 25.2154 16.5935 25.3817L17.7193 26.0583C17.4019 26.3171 17.0205 26.3867 16.5801 26.2628C15.6142 25.9912 14.5076 24.768 14.3212 23.1884C14.316 23.0825 14.3337 23.0355 14.3389 23.0288C14.3487 23.0175 14.4252 22.9733 14.6239 22.962C16.6323 22.8524 17.752 23.583 18.1304 24.3035C18.2552 24.5413 18.3058 24.7875 18.2851 25.0317Z" fill="white"/>
    <path d="M38.6504 14.7308L34.6752 7.74167C34.6719 7.73556 34.6682 7.72946 34.6646 7.72336C33.3731 5.632 32.308 5.45896 31.2408 5.45896H22.5189V4.22789H23.2309C24.0753 4.22789 24.7623 3.54094 24.7623 2.69622V1.53137C24.7623 0.686948 24.0753 0 23.2309 0H16.7069C15.8612 0 15.1734 0.686948 15.1734 1.53137V2.69622C15.1734 3.54094 15.8612 4.22789 16.7069 4.22789H17.4188V5.45896H10.9253C10.8967 4.81199 10.3617 4.29411 9.70678 4.29411H7.94622C7.27392 4.29411 6.72705 4.84098 6.72705 5.51328V9.80526C6.72705 10.4773 7.27392 11.0244 7.94622 11.0244H9.70678C10.3617 11.0244 10.8967 10.5062 10.9253 9.85927H15.1303L13.8224 12.4771H11.6977C10.8533 12.4771 10.1661 13.164 10.1661 14.0084V38.4685C10.1661 39.3129 10.8533 40.0001 11.6977 40.0001H28.2113C29.0558 40.0001 29.7427 39.3129 29.7427 38.4685V26.2728C29.7427 25.9493 29.4806 25.6868 29.1568 25.6868C28.8333 25.6868 28.5711 25.9493 28.5711 26.2728V34.6736H11.3376V17.3025H28.4409C28.7644 17.3025 29.0265 17.0403 29.0265 16.7169C29.0265 16.3934 28.7644 16.1309 28.4409 16.1309H11.3376V14.0084C11.3376 13.8098 11.4991 13.6486 11.6974 13.6486H28.2113C28.4097 13.6486 28.5708 13.8098 28.5708 14.0084V16.1309H21.665C21.3416 16.1309 21.0791 16.3934 21.0791 16.7169C21.0791 17.0403 21.3416 17.3025 21.665 17.3025H28.5708V27.5686C28.5708 27.8921 28.8333 28.1546 29.1568 28.1546C29.4803 28.1546 29.7424 27.8921 29.7424 27.5686V14.0084C29.7424 13.164 29.0555 12.4771 28.211 12.4771H26.5008L25.1944 9.85927H29.1568C30.878 9.85927 31.0174 10.1168 31.791 11.5466C31.9152 11.7761 32.0559 12.0358 32.2177 12.3205L34.8257 16.9039C35.1153 17.4139 35.5871 17.781 36.1553 17.9375C36.3503 17.9913 36.5484 18.0178 36.7449 18.0175C37.12 18.0175 37.4899 17.9208 37.8234 17.7313C38.3334 17.4419 38.7002 16.9695 38.8567 16.4013C39.0133 15.8331 38.9401 15.2398 38.6504 14.7308ZM9.75652 9.80526C9.75652 9.82998 9.73271 9.85256 9.70678 9.85256H7.94622C7.92089 9.85256 7.89862 9.83059 7.89862 9.80526V5.51328C7.89862 5.48795 7.92089 5.46568 7.94622 5.46568H9.70678C9.73271 5.46568 9.75652 5.48826 9.75652 5.51328V9.80526ZM28.5711 35.8452V38.4685C28.5711 38.6668 28.4097 38.8283 28.2113 38.8283H11.6977C11.4991 38.8283 11.3379 38.6668 11.3379 38.4685V35.8452H28.5711ZM16.7069 3.05602C16.5106 3.05602 16.3449 2.89153 16.3449 2.69622V1.53137C16.3449 1.33636 16.5106 1.17157 16.7069 1.17157H23.2309C23.4293 1.17157 23.5907 1.333 23.5907 1.53137V2.69622C23.5907 2.89489 23.4293 3.05602 23.2309 3.05602H16.7069ZM21.3474 4.22758V5.45896H18.5904V4.22758H21.3474ZM15.1319 12.4771L16.4398 9.85927H23.8849L25.1913 12.4771H15.1319ZM37.7273 16.0903C37.6537 16.3567 37.4828 16.5777 37.2448 16.7126C37.0083 16.8472 36.7315 16.881 36.4663 16.8081C36.2005 16.7349 35.9796 16.5637 35.8444 16.3253L33.236 11.7413C33.0804 11.4675 32.9428 11.2133 32.8213 10.989C31.9354 9.35207 31.4831 8.68771 29.1568 8.68771H10.9281V6.63053H31.2408C31.914 6.63053 32.6101 6.63022 33.6624 8.33004L37.6321 15.31C37.7667 15.5468 37.8005 15.8239 37.7273 16.0903Z" fill="white"/>
  </g>
  <defs>
    <clipPath id="clip0_207_268">
      <rect width="40" height="40" fill="white"/>
    </clipPath>
  </defs>
</svg>