<svg xmlns="http://www.w3.org/2000/svg" width="40" height="40" viewBox="0 0 40 40" fill="none">
  <g clip-path="url(#clip0_206_143)">
    <path d="M36.0845 30.4017C35.8922 30.1414 36.4325 31.0332 36.1723 31.2257C35.9121 31.418 35.156 31.0533 35.3483 31.3136C36.641 33.0626 39.025 36.9359 38.7714 38.6913C38.7654 38.7334 38.7331 38.7657 38.6903 38.7718C36.5157 39.0858 33.9667 38.0828 32.0376 36.1537C30.501 34.6172 29.5462 32.6966 29.3878 30.8437C29.4997 30.7468 29.6094 30.6475 29.7183 30.5471L33.9098 34.7379C34.1386 34.9667 34.5096 34.9666 34.7384 34.7378C34.9672 34.509 34.9671 34.138 34.7383 33.9092L30.5469 29.7185C30.6472 29.6098 30.7465 29.5 30.8434 29.3882C32.3752 29.5192 33.9644 30.1961 35.3483 31.3136C35.4567 31.4011 35.5868 31.4436 35.716 31.4436C35.887 31.4436 36.0565 31.3691 36.1723 31.2257C36.3756 30.9739 36.3363 30.605 36.0845 30.4017C34.7388 29.3153 33.2088 28.5957 31.685 28.3194C33.3616 25.9713 34.3492 23.0989 34.3492 20.0001C34.3492 16.9012 33.3616 14.0288 31.685 11.6806C33.5696 11.3387 35.4533 10.3197 36.9821 8.79085C39.1672 6.60576 40.2973 3.67496 39.9314 1.14268C39.8522 0.589318 39.4104 0.147597 38.8579 0.0684556C36.3253 -0.297172 33.3941 0.832601 31.2089 3.01761C29.6801 4.54653 28.6611 6.43021 28.3191 8.31483C25.9709 6.63818 23.0985 5.6506 19.9998 5.6506C16.9626 5.6506 14.0671 6.6181 11.6805 8.31546C11.3386 6.43068 10.3196 4.54668 8.79057 3.01761C6.6054 0.832444 3.6746 -0.297718 1.1424 0.0683775C0.589034 0.147519 0.147235 0.589318 0.0680939 1.14198C-0.297846 3.67496 0.832239 6.60584 3.01733 8.79085C4.5446 10.3181 6.42602 11.3365 8.30869 11.6795C7.78119 12.4185 7.31939 13.2134 6.9347 14.058C6.80055 14.3525 6.93055 14.7 7.22501 14.8342C7.51962 14.9683 7.86697 14.8384 8.00111 14.5439C10.1377 9.85328 14.8474 6.82248 19.9997 6.82248C27.2658 6.82248 33.1772 12.7339 33.1772 20.0001C33.1772 27.2662 27.2658 33.1776 19.9997 33.1776C12.7336 33.1776 6.8222 27.2662 6.8222 20.0001C6.8222 18.9952 7.77728 15.5135 8.00111 14.5439C8.07384 14.2285 7.5404 14.9069 7.22501 14.8342C6.90946 14.7614 7.00751 13.7426 6.9347 14.058C5.9504 16.2192 5.65024 18.9066 5.65024 20.0001C5.65024 23.0989 6.63782 25.9713 8.31439 28.3195C6.42977 28.6614 4.54609 29.6804 3.01725 31.2093C0.83216 33.3944 -0.297924 36.3252 0.0679376 38.8574C0.214345 39.8708 1.2563 39.9996 2.10459 39.9996C4.39304 39.9996 6.87766 38.8952 8.79049 36.9825C10.3193 35.4537 11.3383 33.5699 11.6803 31.6853C14.0285 33.3619 16.9008 34.3495 19.9996 34.3495C23.0984 34.3495 25.9708 33.3619 28.319 31.6853C28.661 33.5699 29.6799 35.4536 31.2087 36.9825C33.1218 38.8955 35.6061 39.9999 37.8943 39.9997C38.7756 39.9996 39.78 39.9049 39.9311 38.8581C40.2286 36.8005 38 32 36.0845 30.4017ZM10.2788 9.45054L6.08969 5.26224C5.86086 5.03333 5.48984 5.03341 5.26109 5.26231C5.03226 5.49114 5.03234 5.86216 5.26117 6.09091L9.44909 10.278C9.34783 10.3876 9.24799 10.4986 9.15002 10.6115C7.299 10.4516 5.38102 9.49718 3.84601 7.96217C1.91701 6.03326 0.913802 3.4841 1.2281 1.30885C1.23412 1.26674 1.26646 1.2344 1.30919 1.22831C3.48366 0.914164 6.03282 1.91729 7.96197 3.84637C9.49784 5.38216 10.4524 7.30162 10.6115 9.15366C10.4989 9.2507 10.3882 9.34984 10.2788 9.45054ZM30.5469 10.2816L34.7383 6.09091C34.9671 5.86208 34.9672 5.49107 34.7384 5.26231C34.5096 5.03341 34.1386 5.03348 33.9098 5.26224L29.7183 9.45296C29.6094 9.35265 29.4997 9.25335 29.3878 9.1564C29.5462 7.3035 30.5009 5.38294 32.0376 3.84637C33.9666 1.91737 36.5156 0.914164 38.6911 1.22838C38.7331 1.2344 38.7654 1.26674 38.7715 1.30956C39.0857 3.4841 38.0825 6.03326 36.1535 7.96217C34.6168 9.49882 32.6963 10.4536 30.8434 10.612C30.7465 10.5001 30.6472 10.3903 30.5469 10.2816ZM7.96189 36.1537C6.03282 38.0827 3.48374 39.0856 1.30841 38.7717C1.26638 38.7657 1.23404 38.7334 1.22794 38.6906C0.913802 36.516 1.91693 33.9669 3.84601 32.0379C5.38266 30.5013 7.30314 29.5464 9.15604 29.3882C9.25299 29.5 9.35229 29.6098 9.4526 29.7185L5.26117 33.9092C5.03234 34.138 5.03226 34.509 5.26109 34.7378C5.37547 34.8522 5.52547 34.9094 5.67547 34.9094C5.82539 34.9094 5.97532 34.8523 6.08977 34.7379L10.2813 30.5471C10.3901 30.6475 10.4999 30.7468 10.6117 30.8437C10.4532 32.6966 9.49846 34.6172 7.96189 36.1537ZM21.3216 10.9383H18.6777C17.7544 10.9383 17.0031 11.6895 17.0031 12.6129V16.501C17.0031 16.7782 16.7776 17.0037 16.5004 17.0037H12.6124C11.689 17.0037 10.9378 17.7549 10.9378 18.6783V21.3222C10.9378 22.2455 11.689 22.9967 12.6124 22.9967H16.5004C16.7776 22.9967 17.0031 23.2223 17.0031 23.4995V27.3875C17.0031 28.3109 17.7544 29.0621 18.6777 29.0621H21.3216C22.2449 29.0621 22.9962 28.311 22.9962 27.3875V23.4995C22.9962 23.2223 23.2217 22.9967 23.4989 22.9967H27.3869C28.3103 22.9967 29.0615 22.2455 29.0615 21.3222V18.6783C29.0615 17.755 28.3103 17.0037 27.3869 17.0037H23.4989C23.2217 17.0037 22.9962 16.7782 22.9962 16.501V12.6129C22.9962 11.6895 22.2449 10.9383 21.3216 10.9383ZM23.4989 18.1754H27.3869C27.6641 18.1754 27.8897 18.4009 27.8897 18.6781V21.322C27.8897 21.5992 27.6641 21.8247 27.3869 21.8247H23.4989C22.5756 21.8247 21.8243 22.5759 21.8243 23.4993V27.3874C21.8243 27.6646 21.5988 27.8901 21.3216 27.8901H18.6777C18.4005 27.8901 18.175 27.6646 18.175 27.3874V23.4993C18.175 22.5759 17.4237 21.8247 16.5004 21.8247H12.6124C12.3352 21.8247 12.1096 21.5992 12.1096 21.322V18.6781C12.1096 18.4009 12.3352 18.1754 12.6124 18.1754H16.5004C17.4237 18.1754 18.175 17.4243 18.175 16.5008V12.6127C18.175 12.3356 18.4005 12.11 18.6777 12.11H21.3216C21.5988 12.11 21.8243 12.3356 21.8243 12.6127V16.5008C21.8243 17.4243 22.5756 18.1754 23.4989 18.1754Z" fill="white"/>
  </g>
  <defs>
    <clipPath id="clip0_206_143">
      <rect width="40" height="40" fill="white"/>
    </clipPath>
  </defs>
</svg>